<mxfile host="app.diagrams.net" modified="2021-12-07T15:01:03.615Z" agent="5.0 (Macintosh; Intel Mac OS X 10_15_7) AppleWebKit/537.36 (KHTML, like Gecko) Chrome/93.0.4577.63 Safari/537.36" etag="hUYQY6ZAClNV4a77HWzz" version="15.8.7" type="github">
  <diagram id="DCeRdAVLhO6ZTOsjjHVU" name="Page-1">
    <mxGraphModel dx="978" dy="1779" grid="1" gridSize="10" guides="1" tooltips="1" connect="1" arrows="1" fold="1" page="1" pageScale="1" pageWidth="1169" pageHeight="827" math="0" shadow="0">
      <root>
        <mxCell id="0" />
        <mxCell id="1" parent="0" />
        <mxCell id="tpjrnW_lignRtLn6L6qm-96" value="" style="group;opacity=20;strokeColor=default;" vertex="1" connectable="0" parent="1">
          <mxGeometry x="80" y="880" width="1040" height="680" as="geometry" />
        </mxCell>
        <mxCell id="tpjrnW_lignRtLn6L6qm-97" value="" style="rounded=0;whiteSpace=wrap;html=1;" vertex="1" parent="tpjrnW_lignRtLn6L6qm-96">
          <mxGeometry width="1040" height="680" as="geometry" />
        </mxCell>
        <mxCell id="tpjrnW_lignRtLn6L6qm-98" value="" style="rounded=0;whiteSpace=wrap;html=1;" vertex="1" parent="tpjrnW_lignRtLn6L6qm-96">
          <mxGeometry width="110" height="680" as="geometry" />
        </mxCell>
        <mxCell id="tpjrnW_lignRtLn6L6qm-99" value="" style="group" vertex="1" connectable="0" parent="tpjrnW_lignRtLn6L6qm-96">
          <mxGeometry x="35" y="12" width="40" height="40" as="geometry" />
        </mxCell>
        <mxCell id="tpjrnW_lignRtLn6L6qm-100" value="" style="ellipse;whiteSpace=wrap;html=1;" vertex="1" parent="tpjrnW_lignRtLn6L6qm-99">
          <mxGeometry width="40" height="40" as="geometry" />
        </mxCell>
        <mxCell id="tpjrnW_lignRtLn6L6qm-101" value="" style="group" vertex="1" connectable="0" parent="tpjrnW_lignRtLn6L6qm-99">
          <mxGeometry x="10" y="4.5" width="20" height="29" as="geometry" />
        </mxCell>
        <mxCell id="tpjrnW_lignRtLn6L6qm-102" value="" style="ellipse;whiteSpace=wrap;html=1;aspect=fixed;" vertex="1" parent="tpjrnW_lignRtLn6L6qm-101">
          <mxGeometry x="4.333333333333334" y="2" width="10.74074074074074" height="10.74074074074074" as="geometry" />
        </mxCell>
        <mxCell id="tpjrnW_lignRtLn6L6qm-103" value="" style="shape=or;whiteSpace=wrap;html=1;rotation=-90;" vertex="1" parent="tpjrnW_lignRtLn6L6qm-101">
          <mxGeometry x="2.0833333333333335" y="11.680555555555555" width="15.833333333333336" height="19.333333333333332" as="geometry" />
        </mxCell>
        <mxCell id="tpjrnW_lignRtLn6L6qm-104" value="Orders" style="text;strokeColor=none;fillColor=none;html=1;fontSize=16;fontStyle=1;verticalAlign=middle;align=center;glass=0;fontColor=#333333;" vertex="1" parent="tpjrnW_lignRtLn6L6qm-96">
          <mxGeometry x="14.5" y="90" width="64.5" height="40" as="geometry" />
        </mxCell>
        <mxCell id="tpjrnW_lignRtLn6L6qm-105" value="New order" style="text;strokeColor=#666666;fillColor=#f5f5f5;html=1;fontSize=16;fontStyle=1;verticalAlign=middle;align=center;fontColor=#333333;glass=1;" vertex="1" parent="tpjrnW_lignRtLn6L6qm-96">
          <mxGeometry x="14.5" y="160" width="80.5" height="40" as="geometry" />
        </mxCell>
        <mxCell id="tpjrnW_lignRtLn6L6qm-106" value="New Order" style="text;strokeColor=none;fillColor=none;html=1;fontSize=20;fontStyle=1;verticalAlign=middle;align=center;glass=1;" vertex="1" parent="tpjrnW_lignRtLn6L6qm-96">
          <mxGeometry x="500" y="22" width="135" height="30" as="geometry" />
        </mxCell>
        <mxCell id="tpjrnW_lignRtLn6L6qm-193" value="" style="rounded=0;whiteSpace=wrap;html=1;glass=1;fontSize=12;fontColor=#CCCCCC;strokeColor=default;fillColor=default;" vertex="1" parent="tpjrnW_lignRtLn6L6qm-96">
          <mxGeometry x="120" y="12" width="900" height="648" as="geometry" />
        </mxCell>
        <mxCell id="tpjrnW_lignRtLn6L6qm-192" value="" style="group;strokeColor=#E6E6E6;fillColor=none;fontColor=#333333;strokeWidth=1;opacity=20;dashed=1;container=0;" vertex="1" connectable="0" parent="tpjrnW_lignRtLn6L6qm-96">
          <mxGeometry x="534" y="82" width="470" height="558" as="geometry" />
        </mxCell>
        <mxCell id="tpjrnW_lignRtLn6L6qm-189" value="" style="rounded=0;whiteSpace=wrap;html=1;glass=0;fontSize=16;strokeColor=default;fillColor=none;fontColor=#333333;shadow=0;sketch=0;opacity=40;" vertex="1" parent="tpjrnW_lignRtLn6L6qm-96">
          <mxGeometry x="534" y="82" width="470" height="558" as="geometry" />
        </mxCell>
        <mxCell id="tpjrnW_lignRtLn6L6qm-136" value="" style="group" vertex="1" connectable="0" parent="tpjrnW_lignRtLn6L6qm-96">
          <mxGeometry x="612" y="142.25" width="320" height="30" as="geometry" />
        </mxCell>
        <mxCell id="tpjrnW_lignRtLn6L6qm-137" value="Product:&amp;nbsp;" style="text;html=1;strokeColor=none;fillColor=none;align=center;verticalAlign=middle;whiteSpace=wrap;rounded=0;glass=1;fontSize=16;" vertex="1" parent="tpjrnW_lignRtLn6L6qm-136">
          <mxGeometry x="-10" width="70" height="30" as="geometry" />
        </mxCell>
        <mxCell id="tpjrnW_lignRtLn6L6qm-138" value="" style="rounded=0;whiteSpace=wrap;html=1;glass=1;fontSize=16;strokeColor=default;fillColor=default;" vertex="1" parent="tpjrnW_lignRtLn6L6qm-136">
          <mxGeometry x="110" width="200" height="30" as="geometry" />
        </mxCell>
        <mxCell id="tpjrnW_lignRtLn6L6qm-139" value="" style="triangle;whiteSpace=wrap;html=1;glass=1;fontSize=16;strokeColor=default;fillColor=default;rotation=90;" vertex="1" parent="tpjrnW_lignRtLn6L6qm-136">
          <mxGeometry x="288" y="8.75" width="7.5" height="12.5" as="geometry" />
        </mxCell>
        <mxCell id="tpjrnW_lignRtLn6L6qm-132" value="" style="group" vertex="1" connectable="0" parent="tpjrnW_lignRtLn6L6qm-96">
          <mxGeometry x="602" y="192.25" width="320" height="30" as="geometry" />
        </mxCell>
        <mxCell id="tpjrnW_lignRtLn6L6qm-133" value="Product origin:&amp;nbsp;" style="text;html=1;strokeColor=none;fillColor=none;align=center;verticalAlign=middle;whiteSpace=wrap;rounded=0;glass=1;fontSize=16;" vertex="1" parent="tpjrnW_lignRtLn6L6qm-132">
          <mxGeometry width="110" height="30" as="geometry" />
        </mxCell>
        <mxCell id="tpjrnW_lignRtLn6L6qm-134" value="" style="rounded=0;whiteSpace=wrap;html=1;glass=1;fontSize=16;strokeColor=default;fillColor=default;" vertex="1" parent="tpjrnW_lignRtLn6L6qm-132">
          <mxGeometry x="120" width="200" height="30" as="geometry" />
        </mxCell>
        <mxCell id="tpjrnW_lignRtLn6L6qm-135" value="" style="triangle;whiteSpace=wrap;html=1;glass=1;fontSize=16;strokeColor=default;fillColor=default;rotation=90;" vertex="1" parent="tpjrnW_lignRtLn6L6qm-132">
          <mxGeometry x="298" y="8.75" width="7.5" height="12.5" as="geometry" />
        </mxCell>
        <mxCell id="tpjrnW_lignRtLn6L6qm-122" value="" style="group" vertex="1" connectable="0" parent="tpjrnW_lignRtLn6L6qm-96">
          <mxGeometry x="602" y="576.5" width="320" height="30" as="geometry" />
        </mxCell>
        <mxCell id="tpjrnW_lignRtLn6L6qm-123" value="Target price:&amp;nbsp;" style="text;html=1;strokeColor=none;fillColor=none;align=center;verticalAlign=middle;whiteSpace=wrap;rounded=0;glass=1;fontSize=16;" vertex="1" parent="tpjrnW_lignRtLn6L6qm-122">
          <mxGeometry width="100" height="30" as="geometry" />
        </mxCell>
        <mxCell id="tpjrnW_lignRtLn6L6qm-124" value="" style="rounded=0;whiteSpace=wrap;html=1;glass=1;fontSize=16;strokeColor=default;fillColor=default;" vertex="1" parent="tpjrnW_lignRtLn6L6qm-122">
          <mxGeometry x="120" width="200" height="30" as="geometry" />
        </mxCell>
        <mxCell id="tpjrnW_lignRtLn6L6qm-125" value="" style="group" vertex="1" connectable="0" parent="tpjrnW_lignRtLn6L6qm-96">
          <mxGeometry x="602" y="525.5" width="320" height="30" as="geometry" />
        </mxCell>
        <mxCell id="tpjrnW_lignRtLn6L6qm-126" value="Quantity:" style="text;html=1;strokeColor=none;fillColor=none;align=center;verticalAlign=middle;whiteSpace=wrap;rounded=0;glass=1;fontSize=16;" vertex="1" parent="tpjrnW_lignRtLn6L6qm-125">
          <mxGeometry width="70" height="30" as="geometry" />
        </mxCell>
        <mxCell id="tpjrnW_lignRtLn6L6qm-127" value="" style="rounded=0;whiteSpace=wrap;html=1;glass=1;fontSize=16;strokeColor=default;fillColor=default;" vertex="1" parent="tpjrnW_lignRtLn6L6qm-125">
          <mxGeometry x="120" width="200" height="30" as="geometry" />
        </mxCell>
        <mxCell id="tpjrnW_lignRtLn6L6qm-128" value="" style="group" vertex="1" connectable="0" parent="tpjrnW_lignRtLn6L6qm-96">
          <mxGeometry x="602" y="477.5" width="320" height="30" as="geometry" />
        </mxCell>
        <mxCell id="tpjrnW_lignRtLn6L6qm-129" value="Required date:" style="text;html=1;strokeColor=none;fillColor=none;align=center;verticalAlign=middle;whiteSpace=wrap;rounded=0;glass=1;fontSize=16;" vertex="1" parent="tpjrnW_lignRtLn6L6qm-128">
          <mxGeometry width="110" height="30" as="geometry" />
        </mxCell>
        <mxCell id="tpjrnW_lignRtLn6L6qm-130" value="" style="rounded=0;whiteSpace=wrap;html=1;glass=1;fontSize=16;strokeColor=default;fillColor=default;" vertex="1" parent="tpjrnW_lignRtLn6L6qm-128">
          <mxGeometry x="120" width="200" height="30" as="geometry" />
        </mxCell>
        <mxCell id="tpjrnW_lignRtLn6L6qm-131" value="" style="triangle;whiteSpace=wrap;html=1;glass=1;fontSize=16;strokeColor=default;fillColor=default;rotation=90;" vertex="1" parent="tpjrnW_lignRtLn6L6qm-128">
          <mxGeometry x="298" y="8.75" width="7.5" height="12.5" as="geometry" />
        </mxCell>
        <mxCell id="tpjrnW_lignRtLn6L6qm-172" value="" style="group" vertex="1" connectable="0" parent="tpjrnW_lignRtLn6L6qm-96">
          <mxGeometry x="602" y="286" width="320" height="30" as="geometry" />
        </mxCell>
        <mxCell id="tpjrnW_lignRtLn6L6qm-173" value="Purity:" style="text;html=1;strokeColor=none;fillColor=none;align=center;verticalAlign=middle;whiteSpace=wrap;rounded=0;glass=1;fontSize=16;" vertex="1" parent="tpjrnW_lignRtLn6L6qm-172">
          <mxGeometry width="50" height="30" as="geometry" />
        </mxCell>
        <mxCell id="tpjrnW_lignRtLn6L6qm-174" value="" style="rounded=0;whiteSpace=wrap;html=1;glass=1;fontSize=16;strokeColor=default;fillColor=default;" vertex="1" parent="tpjrnW_lignRtLn6L6qm-172">
          <mxGeometry x="120" width="200" height="30" as="geometry" />
        </mxCell>
        <mxCell id="tpjrnW_lignRtLn6L6qm-176" value="" style="group" vertex="1" connectable="0" parent="tpjrnW_lignRtLn6L6qm-96">
          <mxGeometry x="602" y="336" width="320" height="30" as="geometry" />
        </mxCell>
        <mxCell id="tpjrnW_lignRtLn6L6qm-177" value="Oil content:" style="text;html=1;strokeColor=none;fillColor=none;align=center;verticalAlign=middle;whiteSpace=wrap;rounded=0;glass=1;fontSize=16;" vertex="1" parent="tpjrnW_lignRtLn6L6qm-176">
          <mxGeometry width="90" height="30" as="geometry" />
        </mxCell>
        <mxCell id="tpjrnW_lignRtLn6L6qm-178" value="" style="rounded=0;whiteSpace=wrap;html=1;glass=1;fontSize=16;strokeColor=default;fillColor=default;" vertex="1" parent="tpjrnW_lignRtLn6L6qm-176">
          <mxGeometry x="120" width="200" height="30" as="geometry" />
        </mxCell>
        <mxCell id="tpjrnW_lignRtLn6L6qm-181" value="" style="group" vertex="1" connectable="0" parent="tpjrnW_lignRtLn6L6qm-96">
          <mxGeometry x="602" y="384" width="320" height="30" as="geometry" />
        </mxCell>
        <mxCell id="tpjrnW_lignRtLn6L6qm-182" value="Color:" style="text;html=1;strokeColor=none;fillColor=none;align=center;verticalAlign=middle;whiteSpace=wrap;rounded=0;glass=1;fontSize=16;" vertex="1" parent="tpjrnW_lignRtLn6L6qm-181">
          <mxGeometry width="50" height="30" as="geometry" />
        </mxCell>
        <mxCell id="tpjrnW_lignRtLn6L6qm-183" value="" style="rounded=0;whiteSpace=wrap;html=1;glass=1;fontSize=16;strokeColor=default;fillColor=default;" vertex="1" parent="tpjrnW_lignRtLn6L6qm-181">
          <mxGeometry x="120" width="200" height="30" as="geometry" />
        </mxCell>
        <mxCell id="tpjrnW_lignRtLn6L6qm-184" value="" style="triangle;whiteSpace=wrap;html=1;glass=1;fontSize=16;strokeColor=default;fillColor=default;rotation=90;" vertex="1" parent="tpjrnW_lignRtLn6L6qm-181">
          <mxGeometry x="298" y="8.75" width="7.5" height="12.5" as="geometry" />
        </mxCell>
        <mxCell id="tpjrnW_lignRtLn6L6qm-185" value="" style="group" vertex="1" connectable="0" parent="tpjrnW_lignRtLn6L6qm-96">
          <mxGeometry x="602" y="429.5" width="320" height="30" as="geometry" />
        </mxCell>
        <mxCell id="tpjrnW_lignRtLn6L6qm-186" value="Free fatty oil:" style="text;html=1;strokeColor=none;fillColor=none;align=center;verticalAlign=middle;whiteSpace=wrap;rounded=0;glass=1;fontSize=16;" vertex="1" parent="tpjrnW_lignRtLn6L6qm-185">
          <mxGeometry width="100" height="30" as="geometry" />
        </mxCell>
        <mxCell id="tpjrnW_lignRtLn6L6qm-187" value="" style="rounded=0;whiteSpace=wrap;html=1;glass=1;fontSize=16;strokeColor=default;fillColor=default;" vertex="1" parent="tpjrnW_lignRtLn6L6qm-185">
          <mxGeometry x="120" width="200" height="30" as="geometry" />
        </mxCell>
        <mxCell id="tpjrnW_lignRtLn6L6qm-190" value="Product details" style="text;html=1;strokeColor=none;fillColor=none;align=center;verticalAlign=middle;whiteSpace=wrap;rounded=0;glass=1;fontSize=16;" vertex="1" parent="tpjrnW_lignRtLn6L6qm-96">
          <mxGeometry x="714" y="100" width="160" height="30" as="geometry" />
        </mxCell>
        <mxCell id="tpjrnW_lignRtLn6L6qm-107" value="" style="rounded=0;whiteSpace=wrap;html=1;glass=1;fontSize=16;strokeColor=#666666;fillColor=none;fontColor=#333333;opacity=30;" vertex="1" parent="tpjrnW_lignRtLn6L6qm-96">
          <mxGeometry x="134" y="82" width="370" height="558" as="geometry" />
        </mxCell>
        <mxCell id="tpjrnW_lignRtLn6L6qm-109" value="" style="group" vertex="1" connectable="0" parent="tpjrnW_lignRtLn6L6qm-96">
          <mxGeometry x="144" y="294" width="320" height="30" as="geometry" />
        </mxCell>
        <mxCell id="tpjrnW_lignRtLn6L6qm-110" value="Destination:" style="text;html=1;strokeColor=none;fillColor=none;align=center;verticalAlign=middle;whiteSpace=wrap;rounded=0;glass=1;fontSize=16;" vertex="1" parent="tpjrnW_lignRtLn6L6qm-109">
          <mxGeometry width="100" height="30" as="geometry" />
        </mxCell>
        <mxCell id="tpjrnW_lignRtLn6L6qm-111" value="&lt;font color=&quot;#cccccc&quot;&gt;shipping destination&lt;/font&gt;" style="rounded=0;whiteSpace=wrap;html=1;glass=1;fontSize=16;strokeColor=default;fillColor=default;" vertex="1" parent="tpjrnW_lignRtLn6L6qm-109">
          <mxGeometry x="122" width="200" height="30" as="geometry" />
        </mxCell>
        <mxCell id="tpjrnW_lignRtLn6L6qm-166" value="" style="triangle;whiteSpace=wrap;html=1;glass=1;fontSize=16;strokeColor=default;fillColor=default;rotation=90;" vertex="1" parent="tpjrnW_lignRtLn6L6qm-109">
          <mxGeometry x="300" y="8.75" width="7.5" height="12.5" as="geometry" />
        </mxCell>
        <mxCell id="tpjrnW_lignRtLn6L6qm-112" value="" style="group" vertex="1" connectable="0" parent="tpjrnW_lignRtLn6L6qm-96">
          <mxGeometry x="144" y="245" width="320" height="30" as="geometry" />
        </mxCell>
        <mxCell id="tpjrnW_lignRtLn6L6qm-113" value="Email:" style="text;html=1;strokeColor=none;fillColor=none;align=center;verticalAlign=middle;whiteSpace=wrap;rounded=0;glass=1;fontSize=16;" vertex="1" parent="tpjrnW_lignRtLn6L6qm-112">
          <mxGeometry width="60" height="30" as="geometry" />
        </mxCell>
        <mxCell id="tpjrnW_lignRtLn6L6qm-114" value="" style="rounded=0;whiteSpace=wrap;html=1;glass=1;fontSize=16;strokeColor=default;fillColor=default;" vertex="1" parent="tpjrnW_lignRtLn6L6qm-112">
          <mxGeometry x="121" width="200" height="30" as="geometry" />
        </mxCell>
        <mxCell id="tpjrnW_lignRtLn6L6qm-115" value="" style="group" vertex="1" connectable="0" parent="tpjrnW_lignRtLn6L6qm-96">
          <mxGeometry x="144" y="194" width="320" height="30" as="geometry" />
        </mxCell>
        <mxCell id="tpjrnW_lignRtLn6L6qm-116" value="Address:" style="text;html=1;strokeColor=none;fillColor=none;align=center;verticalAlign=middle;whiteSpace=wrap;rounded=0;glass=1;fontSize=16;" vertex="1" parent="tpjrnW_lignRtLn6L6qm-115">
          <mxGeometry width="80" height="30" as="geometry" />
        </mxCell>
        <mxCell id="tpjrnW_lignRtLn6L6qm-117" value="" style="rounded=0;whiteSpace=wrap;html=1;glass=1;fontSize=16;strokeColor=default;fillColor=default;" vertex="1" parent="tpjrnW_lignRtLn6L6qm-115">
          <mxGeometry x="120" width="200" height="30" as="geometry" />
        </mxCell>
        <mxCell id="tpjrnW_lignRtLn6L6qm-118" value="" style="group" vertex="1" connectable="0" parent="tpjrnW_lignRtLn6L6qm-96">
          <mxGeometry x="139" y="146" width="320" height="30" as="geometry" />
        </mxCell>
        <mxCell id="tpjrnW_lignRtLn6L6qm-119" value="Company:" style="text;html=1;strokeColor=none;fillColor=none;align=center;verticalAlign=middle;whiteSpace=wrap;rounded=0;glass=1;fontSize=16;" vertex="1" parent="tpjrnW_lignRtLn6L6qm-118">
          <mxGeometry width="100" height="30" as="geometry" />
        </mxCell>
        <mxCell id="tpjrnW_lignRtLn6L6qm-120" value="" style="rounded=0;whiteSpace=wrap;html=1;glass=1;fontSize=16;strokeColor=default;fillColor=default;" vertex="1" parent="tpjrnW_lignRtLn6L6qm-118">
          <mxGeometry x="124" width="200" height="30" as="geometry" />
        </mxCell>
        <mxCell id="tpjrnW_lignRtLn6L6qm-121" value="Buyer info" style="text;html=1;strokeColor=none;fillColor=none;align=center;verticalAlign=middle;whiteSpace=wrap;rounded=0;glass=1;fontSize=16;" vertex="1" parent="tpjrnW_lignRtLn6L6qm-96">
          <mxGeometry x="224" y="92" width="160" height="30" as="geometry" />
        </mxCell>
        <mxCell id="tpjrnW_lignRtLn6L6qm-149" value="" style="group" vertex="1" connectable="0" parent="tpjrnW_lignRtLn6L6qm-96">
          <mxGeometry x="155" y="350" width="290" height="30" as="geometry" />
        </mxCell>
        <mxCell id="tpjrnW_lignRtLn6L6qm-150" value="Port:" style="text;html=1;strokeColor=none;fillColor=none;align=center;verticalAlign=middle;whiteSpace=wrap;rounded=0;glass=1;fontSize=16;" vertex="1" parent="tpjrnW_lignRtLn6L6qm-149">
          <mxGeometry x="-3" width="38" height="30" as="geometry" />
        </mxCell>
        <mxCell id="tpjrnW_lignRtLn6L6qm-151" value="" style="rounded=0;whiteSpace=wrap;html=1;glass=1;fontSize=16;strokeColor=default;fillColor=default;" vertex="1" parent="tpjrnW_lignRtLn6L6qm-149">
          <mxGeometry x="111" width="200" height="30" as="geometry" />
        </mxCell>
        <mxCell id="tpjrnW_lignRtLn6L6qm-152" value="" style="group" vertex="1" connectable="0" parent="tpjrnW_lignRtLn6L6qm-96">
          <mxGeometry x="149" y="451.25" width="290" height="30" as="geometry" />
        </mxCell>
        <mxCell id="tpjrnW_lignRtLn6L6qm-153" value="Payment mode:" style="text;html=1;strokeColor=none;fillColor=none;align=center;verticalAlign=middle;whiteSpace=wrap;rounded=0;glass=1;fontSize=16;" vertex="1" parent="tpjrnW_lignRtLn6L6qm-152">
          <mxGeometry width="120" height="30" as="geometry" />
        </mxCell>
        <mxCell id="tpjrnW_lignRtLn6L6qm-154" value="&lt;span style=&quot;color: rgb(204 , 204 , 204)&quot;&gt;&lt;font style=&quot;font-size: 12px&quot;&gt;swift, Cash, LC, Downpayment&lt;/font&gt;&lt;/span&gt;" style="rounded=0;whiteSpace=wrap;html=1;glass=1;fontSize=16;strokeColor=default;fillColor=default;align=left;" vertex="1" parent="tpjrnW_lignRtLn6L6qm-152">
          <mxGeometry x="119" width="200" height="30" as="geometry" />
        </mxCell>
        <mxCell id="tpjrnW_lignRtLn6L6qm-158" value="" style="triangle;whiteSpace=wrap;html=1;glass=1;fontSize=16;strokeColor=default;fillColor=default;rotation=90;" vertex="1" parent="tpjrnW_lignRtLn6L6qm-96">
          <mxGeometry x="453.5" y="460.75" width="7.5" height="12.5" as="geometry" />
        </mxCell>
        <mxCell id="tpjrnW_lignRtLn6L6qm-159" value="" style="triangle;whiteSpace=wrap;html=1;glass=1;fontSize=16;strokeColor=default;fillColor=default;rotation=90;" vertex="1" parent="tpjrnW_lignRtLn6L6qm-96">
          <mxGeometry x="456.5" y="418.75" width="7.5" height="12.5" as="geometry" />
        </mxCell>
        <mxCell id="tpjrnW_lignRtLn6L6qm-160" value="" style="group" vertex="1" connectable="0" parent="tpjrnW_lignRtLn6L6qm-96">
          <mxGeometry x="124" y="401.25" width="290" height="30" as="geometry" />
        </mxCell>
        <mxCell id="tpjrnW_lignRtLn6L6qm-161" value="Payment:" style="text;html=1;strokeColor=none;fillColor=none;align=center;verticalAlign=middle;whiteSpace=wrap;rounded=0;glass=1;fontSize=16;" vertex="1" parent="tpjrnW_lignRtLn6L6qm-160">
          <mxGeometry x="23" width="80" height="30" as="geometry" />
        </mxCell>
        <mxCell id="tpjrnW_lignRtLn6L6qm-162" value="&lt;font color=&quot;#cccccc&quot;&gt;Full, partial&lt;/font&gt;" style="rounded=0;whiteSpace=wrap;html=1;glass=1;fontSize=16;strokeColor=default;fillColor=default;" vertex="1" parent="tpjrnW_lignRtLn6L6qm-160">
          <mxGeometry x="143" width="200" height="30" as="geometry" />
        </mxCell>
        <mxCell id="tpjrnW_lignRtLn6L6qm-155" value="" style="group" vertex="1" connectable="0" parent="tpjrnW_lignRtLn6L6qm-96">
          <mxGeometry x="144" y="500" width="350" height="40" as="geometry" />
        </mxCell>
        <mxCell id="tpjrnW_lignRtLn6L6qm-156" value="Sessions:" style="text;html=1;strokeColor=none;fillColor=none;align=center;verticalAlign=middle;whiteSpace=wrap;rounded=0;glass=1;fontSize=16;" vertex="1" parent="tpjrnW_lignRtLn6L6qm-155">
          <mxGeometry width="80" height="30" as="geometry" />
        </mxCell>
        <mxCell id="tpjrnW_lignRtLn6L6qm-157" value="&lt;font color=&quot;#cccccc&quot;&gt;1, 2, 3&lt;/font&gt;" style="rounded=0;whiteSpace=wrap;html=1;glass=1;fontSize=16;strokeColor=default;fillColor=default;" vertex="1" parent="tpjrnW_lignRtLn6L6qm-155">
          <mxGeometry x="124" width="200" height="30" as="geometry" />
        </mxCell>
        <mxCell id="tpjrnW_lignRtLn6L6qm-201" value="" style="rounded=0;whiteSpace=wrap;html=1;shadow=0;glass=0;dashed=1;sketch=0;fontSize=12;fontColor=#000099;strokeColor=default;strokeWidth=1;fillColor=#FFFFCC;opacity=20;" vertex="1" parent="tpjrnW_lignRtLn6L6qm-155">
          <mxGeometry x="-14" y="-10" width="364" height="50" as="geometry" />
        </mxCell>
        <mxCell id="tpjrnW_lignRtLn6L6qm-146" value="" style="group" vertex="1" connectable="0" parent="tpjrnW_lignRtLn6L6qm-96">
          <mxGeometry x="144" y="550" width="280" height="60" as="geometry" />
        </mxCell>
        <mxCell id="tpjrnW_lignRtLn6L6qm-147" value="Note" style="text;html=1;strokeColor=none;fillColor=none;align=center;verticalAlign=middle;whiteSpace=wrap;rounded=0;glass=1;fontSize=16;" vertex="1" parent="tpjrnW_lignRtLn6L6qm-146">
          <mxGeometry width="50" height="30" as="geometry" />
        </mxCell>
        <mxCell id="tpjrnW_lignRtLn6L6qm-148" value="" style="rounded=0;whiteSpace=wrap;html=1;glass=1;fontSize=16;strokeColor=default;fillColor=default;" vertex="1" parent="tpjrnW_lignRtLn6L6qm-146">
          <mxGeometry x="124" width="200" height="60" as="geometry" />
        </mxCell>
        <mxCell id="tpjrnW_lignRtLn6L6qm-163" value="" style="triangle;whiteSpace=wrap;html=1;glass=1;fontSize=16;strokeColor=default;fillColor=default;rotation=90;" vertex="1" parent="tpjrnW_lignRtLn6L6qm-96">
          <mxGeometry x="451.5" y="508.75" width="7.5" height="12.5" as="geometry" />
        </mxCell>
        <mxCell id="tpjrnW_lignRtLn6L6qm-164" value="" style="triangle;whiteSpace=wrap;html=1;glass=1;fontSize=16;strokeColor=default;fillColor=default;rotation=90;" vertex="1" parent="tpjrnW_lignRtLn6L6qm-96">
          <mxGeometry x="449" y="410" width="7.5" height="12.5" as="geometry" />
        </mxCell>
        <mxCell id="tpjrnW_lignRtLn6L6qm-165" value="" style="triangle;whiteSpace=wrap;html=1;glass=1;fontSize=16;strokeColor=default;fillColor=default;rotation=90;" vertex="1" parent="tpjrnW_lignRtLn6L6qm-96">
          <mxGeometry x="449" y="358.75" width="7.5" height="12.5" as="geometry" />
        </mxCell>
        <mxCell id="tpjrnW_lignRtLn6L6qm-195" value="" style="rounded=0;whiteSpace=wrap;html=1;shadow=0;glass=0;dashed=1;sketch=0;fontSize=12;fontColor=#CCCCCC;strokeColor=default;strokeWidth=1;fillColor=#FFFFCC;opacity=20;" vertex="1" parent="tpjrnW_lignRtLn6L6qm-96">
          <mxGeometry x="591" y="232.25" width="342" height="241" as="geometry" />
        </mxCell>
        <mxCell id="tpjrnW_lignRtLn6L6qm-168" value="Moisture:" style="text;html=1;strokeColor=none;fillColor=none;align=center;verticalAlign=middle;whiteSpace=wrap;rounded=0;glass=1;fontSize=16;" vertex="1" parent="tpjrnW_lignRtLn6L6qm-96">
          <mxGeometry x="602" y="241" width="70" height="30" as="geometry" />
        </mxCell>
        <mxCell id="tpjrnW_lignRtLn6L6qm-169" value="" style="rounded=0;whiteSpace=wrap;html=1;glass=1;fontSize=16;strokeColor=default;fillColor=default;" vertex="1" parent="tpjrnW_lignRtLn6L6qm-96">
          <mxGeometry x="722" y="241" width="200" height="30" as="geometry" />
        </mxCell>
        <mxCell id="tpjrnW_lignRtLn6L6qm-19" value="" style="group" vertex="1" connectable="0" parent="1">
          <mxGeometry x="80" y="80" width="1040" height="680" as="geometry" />
        </mxCell>
        <mxCell id="tpjrnW_lignRtLn6L6qm-1" value="" style="rounded=0;whiteSpace=wrap;html=1;" vertex="1" parent="tpjrnW_lignRtLn6L6qm-19">
          <mxGeometry width="1040" height="680" as="geometry" />
        </mxCell>
        <mxCell id="tpjrnW_lignRtLn6L6qm-3" value="" style="rounded=0;whiteSpace=wrap;html=1;" vertex="1" parent="tpjrnW_lignRtLn6L6qm-19">
          <mxGeometry width="110" height="680" as="geometry" />
        </mxCell>
        <mxCell id="tpjrnW_lignRtLn6L6qm-12" value="" style="group" vertex="1" connectable="0" parent="tpjrnW_lignRtLn6L6qm-19">
          <mxGeometry x="35" y="12" width="40" height="40" as="geometry" />
        </mxCell>
        <mxCell id="tpjrnW_lignRtLn6L6qm-4" value="" style="ellipse;whiteSpace=wrap;html=1;" vertex="1" parent="tpjrnW_lignRtLn6L6qm-12">
          <mxGeometry width="40" height="40" as="geometry" />
        </mxCell>
        <mxCell id="tpjrnW_lignRtLn6L6qm-8" value="" style="group" vertex="1" connectable="0" parent="tpjrnW_lignRtLn6L6qm-12">
          <mxGeometry x="10" y="4.5" width="20" height="29" as="geometry" />
        </mxCell>
        <mxCell id="tpjrnW_lignRtLn6L6qm-9" value="" style="ellipse;whiteSpace=wrap;html=1;aspect=fixed;" vertex="1" parent="tpjrnW_lignRtLn6L6qm-8">
          <mxGeometry x="4.333333333333334" y="2" width="10.74074074074074" height="10.74074074074074" as="geometry" />
        </mxCell>
        <mxCell id="tpjrnW_lignRtLn6L6qm-10" value="" style="shape=or;whiteSpace=wrap;html=1;rotation=-90;" vertex="1" parent="tpjrnW_lignRtLn6L6qm-8">
          <mxGeometry x="2.0833333333333335" y="11.680555555555555" width="15.833333333333336" height="19.333333333333332" as="geometry" />
        </mxCell>
        <mxCell id="tpjrnW_lignRtLn6L6qm-17" value="Orders" style="text;strokeColor=#666666;fillColor=#f5f5f5;html=1;fontSize=16;fontStyle=1;verticalAlign=middle;align=center;glass=1;fontColor=#333333;" vertex="1" parent="tpjrnW_lignRtLn6L6qm-19">
          <mxGeometry x="14.5" y="90" width="64.5" height="40" as="geometry" />
        </mxCell>
        <mxCell id="tpjrnW_lignRtLn6L6qm-18" value="New order" style="text;strokeColor=none;fillColor=none;html=1;fontSize=16;fontStyle=1;verticalAlign=middle;align=center;" vertex="1" parent="tpjrnW_lignRtLn6L6qm-19">
          <mxGeometry x="14.5" y="160" width="80.5" height="40" as="geometry" />
        </mxCell>
        <mxCell id="tpjrnW_lignRtLn6L6qm-387" value="" style="group" vertex="1" connectable="0" parent="tpjrnW_lignRtLn6L6qm-19">
          <mxGeometry x="142" y="12" width="698" height="180" as="geometry" />
        </mxCell>
        <mxCell id="tpjrnW_lignRtLn6L6qm-388" value="" style="endArrow=classic;html=1;rounded=0;fontSize=14;" edge="1" parent="tpjrnW_lignRtLn6L6qm-387">
          <mxGeometry x="15.434889434889437" y="20" width="85.74938574938575" height="50" as="geometry">
            <mxPoint x="15.434889434889437" y="162.22222222222217" as="sourcePoint" />
            <mxPoint x="647.6281164410839" y="162.22222222222217" as="targetPoint" />
          </mxGeometry>
        </mxCell>
        <mxCell id="tpjrnW_lignRtLn6L6qm-389" value="" style="endArrow=classic;html=1;rounded=0;fontSize=14;" edge="1" parent="tpjrnW_lignRtLn6L6qm-387">
          <mxGeometry x="15.434889434889437" y="20" width="85.74938574938575" height="50" as="geometry">
            <mxPoint x="15.434889434889437" y="162.22222222222217" as="sourcePoint" />
            <mxPoint x="16.088656991255693" y="20" as="targetPoint" />
          </mxGeometry>
        </mxCell>
        <mxCell id="tpjrnW_lignRtLn6L6qm-390" value="" style="rounded=1;whiteSpace=wrap;html=1;fontSize=14;strokeColor=default;fillColor=#FFCCCC;" vertex="1" parent="tpjrnW_lignRtLn6L6qm-387">
          <mxGeometry x="76.23527217695369" y="85.18518518518522" width="10.46028090186051" height="77.03703703703704" as="geometry" />
        </mxCell>
        <mxCell id="tpjrnW_lignRtLn6L6qm-391" value="" style="rounded=1;whiteSpace=wrap;html=1;fontSize=14;strokeColor=#82b366;fillColor=#d5e8d4;" vertex="1" parent="tpjrnW_lignRtLn6L6qm-387">
          <mxGeometry x="105.00869778869782" y="70" width="10.461425061425063" height="92.22" as="geometry" />
        </mxCell>
        <mxCell id="tpjrnW_lignRtLn6L6qm-392" value="Cashew" style="text;html=1;strokeColor=none;fillColor=none;align=center;verticalAlign=middle;whiteSpace=wrap;rounded=0;fontSize=10;" vertex="1" parent="tpjrnW_lignRtLn6L6qm-387">
          <mxGeometry x="59.23731571143029" y="162.22222222222217" width="78.45210676395382" height="17.77777777777778" as="geometry" />
        </mxCell>
        <mxCell id="tpjrnW_lignRtLn6L6qm-393" value="" style="rounded=1;whiteSpace=wrap;html=1;fontSize=14;strokeColor=#b85450;fillColor=#f8cecc;" vertex="1" parent="tpjrnW_lignRtLn6L6qm-387">
          <mxGeometry x="216.141529239338" y="102.96296296296305" width="10.46028090186051" height="59.25925925925926" as="geometry" />
        </mxCell>
        <mxCell id="tpjrnW_lignRtLn6L6qm-394" value="" style="rounded=1;whiteSpace=wrap;html=1;fontSize=14;strokeColor=#82b366;fillColor=#d5e8d4;" vertex="1" parent="tpjrnW_lignRtLn6L6qm-387">
          <mxGeometry x="244.9002457002457" y="120" width="10.461425061425063" height="42.22" as="geometry" />
        </mxCell>
        <mxCell id="tpjrnW_lignRtLn6L6qm-395" value="" style="rounded=1;whiteSpace=wrap;html=1;fontSize=14;strokeColor=#b85450;fillColor=#f8cecc;" vertex="1" parent="tpjrnW_lignRtLn6L6qm-387">
          <mxGeometry x="359.9703916399199" y="120.74074074074088" width="10.46028090186051" height="41.48148148148148" as="geometry" />
        </mxCell>
        <mxCell id="tpjrnW_lignRtLn6L6qm-396" value="" style="rounded=1;whiteSpace=wrap;html=1;fontSize=14;strokeColor=#82b366;fillColor=#d5e8d4;" vertex="1" parent="tpjrnW_lignRtLn6L6qm-387">
          <mxGeometry x="388.7361641200365" y="85.18518518518522" width="10.46028090186051" height="77.03703703703704" as="geometry" />
        </mxCell>
        <mxCell id="tpjrnW_lignRtLn6L6qm-397" value="" style="rounded=1;whiteSpace=wrap;html=1;fontSize=14;strokeColor=#9673a6;fillColor=#e1d5e7;" vertex="1" parent="tpjrnW_lignRtLn6L6qm-387">
          <mxGeometry x="493.99274069500774" y="61.481481481481296" width="10.46028090186051" height="100.74074074074073" as="geometry" />
        </mxCell>
        <mxCell id="tpjrnW_lignRtLn6L6qm-398" value="" style="rounded=1;whiteSpace=wrap;html=1;fontSize=14;strokeColor=#b85450;fillColor=#f8cecc;" vertex="1" parent="tpjrnW_lignRtLn6L6qm-387">
          <mxGeometry x="522.7585131751241" y="73.33333333333348" width="10.46028090186051" height="88.88888888888889" as="geometry" />
        </mxCell>
        <mxCell id="tpjrnW_lignRtLn6L6qm-399" value="Sesame" style="text;html=1;strokeColor=none;fillColor=none;align=center;verticalAlign=middle;whiteSpace=wrap;rounded=0;fontSize=10;" vertex="1" parent="tpjrnW_lignRtLn6L6qm-387">
          <mxGeometry x="192.60589721015182" y="162.22222222222217" width="78.45210676395382" height="17.77777777777778" as="geometry" />
        </mxCell>
        <mxCell id="tpjrnW_lignRtLn6L6qm-400" value="Soya bean" style="text;html=1;strokeColor=none;fillColor=none;align=center;verticalAlign=middle;whiteSpace=wrap;rounded=0;fontSize=10;" vertex="1" parent="tpjrnW_lignRtLn6L6qm-387">
          <mxGeometry x="314.8948390694026" y="162.21913043478253" width="116.45664708008846" height="17.78086956521739" as="geometry" />
        </mxCell>
        <mxCell id="tpjrnW_lignRtLn6L6qm-401" value="Coco nut" style="text;html=1;strokeColor=none;fillColor=none;align=center;verticalAlign=middle;whiteSpace=wrap;rounded=0;fontSize=10;" vertex="1" parent="tpjrnW_lignRtLn6L6qm-387">
          <mxGeometry x="461.0645678187823" y="162.21913043478253" width="106.70756205309821" height="17.78086956521739" as="geometry" />
        </mxCell>
        <mxCell id="tpjrnW_lignRtLn6L6qm-402" value="" style="rounded=0;whiteSpace=wrap;html=1;fontSize=14;strokeColor=default;fillColor=none;" vertex="1" parent="tpjrnW_lignRtLn6L6qm-387">
          <mxGeometry width="698.0000000000001" height="179.74" as="geometry" />
        </mxCell>
        <mxCell id="tpjrnW_lignRtLn6L6qm-403" value="" style="rounded=1;whiteSpace=wrap;html=1;fontSize=14;strokeColor=#82b366;fillColor=#d5e8d4;" vertex="1" parent="tpjrnW_lignRtLn6L6qm-387">
          <mxGeometry x="548.487371007371" y="70" width="10.461425061425063" height="92.22" as="geometry" />
        </mxCell>
        <mxCell id="tpjrnW_lignRtLn6L6qm-404" value="" style="rounded=1;whiteSpace=wrap;html=1;fontSize=14;strokeColor=#9673a6;fillColor=#e1d5e7;" vertex="1" parent="tpjrnW_lignRtLn6L6qm-387">
          <mxGeometry x="336.1335500301609" y="73.33333333333348" width="10.46028090186051" height="88.88888888888889" as="geometry" />
        </mxCell>
        <mxCell id="tpjrnW_lignRtLn6L6qm-405" value="" style="rounded=1;whiteSpace=wrap;html=1;fontSize=14;strokeColor=#9673a6;fillColor=#e1d5e7;" vertex="1" parent="tpjrnW_lignRtLn6L6qm-387">
          <mxGeometry x="192.6062281628391" y="73.33333333333348" width="10.46028090186051" height="88.88888888888889" as="geometry" />
        </mxCell>
        <mxCell id="tpjrnW_lignRtLn6L6qm-406" value="" style="rounded=1;whiteSpace=wrap;html=1;fontSize=14;strokeColor=#9673a6;fillColor=#e1d5e7;" vertex="1" parent="tpjrnW_lignRtLn6L6qm-387">
          <mxGeometry x="48.77425061425061" y="50" width="10.461425061425063" height="112.22" as="geometry" />
        </mxCell>
        <mxCell id="tpjrnW_lignRtLn6L6qm-407" value="" style="rounded=1;whiteSpace=wrap;html=1;fontSize=14;strokeColor=#9673a6;fillColor=#e1d5e7;rotation=90;" vertex="1" parent="tpjrnW_lignRtLn6L6qm-387">
          <mxGeometry x="48.77425061425061" y="10" width="10.461425061425063" height="11.89" as="geometry" />
        </mxCell>
        <mxCell id="tpjrnW_lignRtLn6L6qm-408" value="" style="rounded=1;whiteSpace=wrap;html=1;fontSize=14;strokeColor=#b85450;fillColor=#f8cecc;rotation=90;" vertex="1" parent="tpjrnW_lignRtLn6L6qm-387">
          <mxGeometry x="287.02034398034397" y="10.980000000000018" width="10.461425061425063" height="11.95" as="geometry" />
        </mxCell>
        <mxCell id="tpjrnW_lignRtLn6L6qm-409" value="" style="rounded=1;whiteSpace=wrap;html=1;fontSize=14;strokeColor=#82b366;fillColor=#d5e8d4;rotation=90;" vertex="1" parent="tpjrnW_lignRtLn6L6qm-387">
          <mxGeometry x="491.8927764127763" y="12.559999999999945" width="10.461425061425063" height="11.89" as="geometry" />
        </mxCell>
        <mxCell id="tpjrnW_lignRtLn6L6qm-410" value="Ordered" style="text;html=1;strokeColor=none;fillColor=none;align=center;verticalAlign=middle;whiteSpace=wrap;rounded=0;shadow=0;glass=0;fontSize=13;" vertex="1" parent="tpjrnW_lignRtLn6L6qm-387">
          <mxGeometry x="59.01272727272731" width="102.8992628992629" height="30" as="geometry" />
        </mxCell>
        <mxCell id="tpjrnW_lignRtLn6L6qm-411" value="Delivered" style="text;html=1;strokeColor=none;fillColor=none;align=center;verticalAlign=middle;whiteSpace=wrap;rounded=0;shadow=0;glass=0;fontSize=13;" vertex="1" parent="tpjrnW_lignRtLn6L6qm-387">
          <mxGeometry x="307.0006837606837" y="1.51" width="64.58417582417582" height="30" as="geometry" />
        </mxCell>
        <mxCell id="tpjrnW_lignRtLn6L6qm-412" value="In progress" style="text;html=1;strokeColor=none;fillColor=none;align=center;verticalAlign=middle;whiteSpace=wrap;rounded=0;shadow=0;glass=0;fontSize=13;" vertex="1" parent="tpjrnW_lignRtLn6L6qm-387">
          <mxGeometry x="515.9026044226046" y="3.5100000000002183" width="118.64285012285015" height="30" as="geometry" />
        </mxCell>
        <mxCell id="tpjrnW_lignRtLn6L6qm-443" value="" style="rounded=0;whiteSpace=wrap;html=1;fontSize=14;strokeColor=default;fillColor=none;" vertex="1" parent="tpjrnW_lignRtLn6L6qm-19">
          <mxGeometry x="139.5" y="420" width="481" height="237.39" as="geometry" />
        </mxCell>
        <mxCell id="tpjrnW_lignRtLn6L6qm-444" value="" style="group" vertex="1" connectable="0" parent="tpjrnW_lignRtLn6L6qm-19">
          <mxGeometry x="149.07" y="459" width="461.93" height="184.78" as="geometry" />
        </mxCell>
        <mxCell id="tpjrnW_lignRtLn6L6qm-445" value="" style="endArrow=classic;html=1;rounded=0;fontSize=14;" edge="1" parent="tpjrnW_lignRtLn6L6qm-444">
          <mxGeometry y="19.99999999999998" width="87.21648008631263" height="49.99999999999994" as="geometry">
            <mxPoint y="162.222222222222" as="sourcePoint" />
            <mxPoint x="461.92999999999995" y="161.99999999999983" as="targetPoint" />
          </mxGeometry>
        </mxCell>
        <mxCell id="tpjrnW_lignRtLn6L6qm-446" value="" style="endArrow=classic;html=1;rounded=0;fontSize=14;" edge="1" parent="tpjrnW_lignRtLn6L6qm-444">
          <mxGeometry y="19.99999999999998" width="87.21648008631263" height="49.99999999999994" as="geometry">
            <mxPoint y="162.222222222222" as="sourcePoint" />
            <mxPoint x="0.7709979436201433" as="targetPoint" />
          </mxGeometry>
        </mxCell>
        <mxCell id="tpjrnW_lignRtLn6L6qm-447" value="" style="rounded=1;whiteSpace=wrap;html=1;fontSize=14;strokeColor=#9673a6;fillColor=#e1d5e7;rotation=90;" vertex="1" parent="tpjrnW_lignRtLn6L6qm-444">
          <mxGeometry x="26.108205392694778" y="9.99999999999999" width="10.640410570530141" height="11.889999999999988" as="geometry" />
        </mxCell>
        <mxCell id="tpjrnW_lignRtLn6L6qm-448" value="" style="rounded=1;whiteSpace=wrap;html=1;fontSize=14;strokeColor=#b85450;fillColor=#f8cecc;rotation=90;" vertex="1" parent="tpjrnW_lignRtLn6L6qm-444">
          <mxGeometry x="268.4304736645058" y="10.980000000000006" width="10.640410570530141" height="11.949999999999987" as="geometry" />
        </mxCell>
        <mxCell id="tpjrnW_lignRtLn6L6qm-449" value="Ordered" style="text;html=1;strokeColor=none;fillColor=none;align=center;verticalAlign=middle;whiteSpace=wrap;rounded=0;shadow=0;glass=0;fontSize=13;" vertex="1" parent="tpjrnW_lignRtLn6L6qm-444">
          <mxGeometry x="14.85084737926842" width="104.65977610357515" height="29.999999999999968" as="geometry" />
        </mxCell>
        <mxCell id="tpjrnW_lignRtLn6L6qm-450" value="Supplied" style="text;html=1;strokeColor=none;fillColor=none;align=center;verticalAlign=middle;whiteSpace=wrap;rounded=0;shadow=0;glass=0;fontSize=13;" vertex="1" parent="tpjrnW_lignRtLn6L6qm-444">
          <mxGeometry x="258.41636048430973" y="1.5099999999997618" width="104.65977610357515" height="29.999999999999968" as="geometry" />
        </mxCell>
        <mxCell id="tpjrnW_lignRtLn6L6qm-451" value="" style="group" vertex="1" connectable="0" parent="tpjrnW_lignRtLn6L6qm-444">
          <mxGeometry x="16.668847751353216" y="49.99999999999994" width="25.71048120487263" height="134.78000000000006" as="geometry" />
        </mxCell>
        <mxCell id="tpjrnW_lignRtLn6L6qm-452" value="" style="rounded=1;whiteSpace=wrap;html=1;fontSize=14;strokeColor=default;fillColor=#FFCCCC;" vertex="1" parent="tpjrnW_lignRtLn6L6qm-451">
          <mxGeometry x="15.699206678997124" y="35.18518518518518" width="6.067881606004999" height="77.03703703703697" as="geometry" />
        </mxCell>
        <mxCell id="tpjrnW_lignRtLn6L6qm-453" value="Jan" style="text;html=1;strokeColor=none;fillColor=none;align=center;verticalAlign=middle;whiteSpace=wrap;rounded=0;fontSize=10;" vertex="1" parent="tpjrnW_lignRtLn6L6qm-451">
          <mxGeometry y="116.99999999999989" width="25.710481204872607" height="17.779999999999983" as="geometry" />
        </mxCell>
        <mxCell id="tpjrnW_lignRtLn6L6qm-454" value="" style="rounded=1;whiteSpace=wrap;html=1;fontSize=14;strokeColor=#9673a6;fillColor=#e1d5e7;" vertex="1" parent="tpjrnW_lignRtLn6L6qm-451">
          <mxGeometry x="0.7714878041921016" width="6.067881606004999" height="111.99999999999989" as="geometry" />
        </mxCell>
        <mxCell id="tpjrnW_lignRtLn6L6qm-455" value="" style="group" vertex="1" connectable="0" parent="tpjrnW_lignRtLn6L6qm-444">
          <mxGeometry x="51.91457147994799" y="49.99999999999994" width="25.71048120487263" height="134.78000000000006" as="geometry" />
        </mxCell>
        <mxCell id="tpjrnW_lignRtLn6L6qm-456" value="" style="rounded=1;whiteSpace=wrap;html=1;fontSize=14;strokeColor=default;fillColor=#FFCCCC;" vertex="1" parent="tpjrnW_lignRtLn6L6qm-455">
          <mxGeometry x="15.699206678997124" y="35.18518518518518" width="6.067881606004999" height="77.03703703703697" as="geometry" />
        </mxCell>
        <mxCell id="tpjrnW_lignRtLn6L6qm-457" value="Feb" style="text;html=1;strokeColor=none;fillColor=none;align=center;verticalAlign=middle;whiteSpace=wrap;rounded=0;fontSize=10;" vertex="1" parent="tpjrnW_lignRtLn6L6qm-455">
          <mxGeometry y="116.99999999999989" width="25.710481204872607" height="17.779999999999983" as="geometry" />
        </mxCell>
        <mxCell id="tpjrnW_lignRtLn6L6qm-458" value="" style="rounded=1;whiteSpace=wrap;html=1;fontSize=14;strokeColor=#9673a6;fillColor=#e1d5e7;" vertex="1" parent="tpjrnW_lignRtLn6L6qm-455">
          <mxGeometry x="0.7714878041920641" y="29.99999999999997" width="6.067881606004999" height="81.99999999999991" as="geometry" />
        </mxCell>
        <mxCell id="tpjrnW_lignRtLn6L6qm-459" value="" style="group" vertex="1" connectable="0" parent="tpjrnW_lignRtLn6L6qm-444">
          <mxGeometry x="85.4439515542727" y="49.99999999999994" width="25.71048120487263" height="134.78000000000006" as="geometry" />
        </mxCell>
        <mxCell id="tpjrnW_lignRtLn6L6qm-460" value="" style="rounded=1;whiteSpace=wrap;html=1;fontSize=14;strokeColor=default;fillColor=#FFCCCC;" vertex="1" parent="tpjrnW_lignRtLn6L6qm-459">
          <mxGeometry x="15.698476554964362" y="19.99999999999998" width="6.067881606004999" height="92.21999999999991" as="geometry" />
        </mxCell>
        <mxCell id="tpjrnW_lignRtLn6L6qm-461" value="Mar" style="text;html=1;strokeColor=none;fillColor=none;align=center;verticalAlign=middle;whiteSpace=wrap;rounded=0;fontSize=10;" vertex="1" parent="tpjrnW_lignRtLn6L6qm-459">
          <mxGeometry y="116.99999999999989" width="25.710481204872607" height="17.779999999999983" as="geometry" />
        </mxCell>
        <mxCell id="tpjrnW_lignRtLn6L6qm-462" value="" style="rounded=1;whiteSpace=wrap;html=1;fontSize=14;strokeColor=#9673a6;fillColor=#e1d5e7;" vertex="1" parent="tpjrnW_lignRtLn6L6qm-459">
          <mxGeometry x="0.7714878041921016" width="6.067881606004999" height="111.99999999999989" as="geometry" />
        </mxCell>
        <mxCell id="tpjrnW_lignRtLn6L6qm-463" value="" style="group" vertex="1" connectable="0" parent="tpjrnW_lignRtLn6L6qm-444">
          <mxGeometry x="120.68967528286751" y="49.99999999999994" width="25.71048120487263" height="134.78000000000006" as="geometry" />
        </mxCell>
        <mxCell id="tpjrnW_lignRtLn6L6qm-464" value="" style="rounded=1;whiteSpace=wrap;html=1;fontSize=14;strokeColor=default;fillColor=#FFCCCC;" vertex="1" parent="tpjrnW_lignRtLn6L6qm-463">
          <mxGeometry x="15.698476554964362" y="79.99999999999991" width="6.067881606004999" height="32.21999999999996" as="geometry" />
        </mxCell>
        <mxCell id="tpjrnW_lignRtLn6L6qm-465" value="Apr" style="text;html=1;strokeColor=none;fillColor=none;align=center;verticalAlign=middle;whiteSpace=wrap;rounded=0;fontSize=10;" vertex="1" parent="tpjrnW_lignRtLn6L6qm-463">
          <mxGeometry y="116.99999999999989" width="25.710481204872607" height="17.779999999999983" as="geometry" />
        </mxCell>
        <mxCell id="tpjrnW_lignRtLn6L6qm-466" value="" style="rounded=1;whiteSpace=wrap;html=1;fontSize=14;strokeColor=#9673a6;fillColor=#e1d5e7;" vertex="1" parent="tpjrnW_lignRtLn6L6qm-463">
          <mxGeometry x="0.7714878041920641" y="-9.99999999999999" width="6.067881606004999" height="121.99999999999987" as="geometry" />
        </mxCell>
        <mxCell id="tpjrnW_lignRtLn6L6qm-467" value="" style="group" vertex="1" connectable="0" parent="tpjrnW_lignRtLn6L6qm-444">
          <mxGeometry x="155.93539901146224" y="49.99999999999994" width="25.71048120487263" height="134.78000000000006" as="geometry" />
        </mxCell>
        <mxCell id="tpjrnW_lignRtLn6L6qm-468" value="" style="rounded=1;whiteSpace=wrap;html=1;fontSize=14;strokeColor=default;fillColor=#FFCCCC;" vertex="1" parent="tpjrnW_lignRtLn6L6qm-467">
          <mxGeometry x="15.698476554964362" y="79.99999999999991" width="6.067881606004999" height="32.21999999999996" as="geometry" />
        </mxCell>
        <mxCell id="tpjrnW_lignRtLn6L6qm-469" value="May" style="text;html=1;strokeColor=none;fillColor=none;align=center;verticalAlign=middle;whiteSpace=wrap;rounded=0;fontSize=10;" vertex="1" parent="tpjrnW_lignRtLn6L6qm-467">
          <mxGeometry y="116.99999999999989" width="25.710481204872607" height="17.779999999999983" as="geometry" />
        </mxCell>
        <mxCell id="tpjrnW_lignRtLn6L6qm-470" value="" style="rounded=1;whiteSpace=wrap;html=1;fontSize=14;strokeColor=#9673a6;fillColor=#e1d5e7;" vertex="1" parent="tpjrnW_lignRtLn6L6qm-467">
          <mxGeometry x="0.7714878041920641" y="59.99999999999994" width="6.067881606004999" height="51.99999999999995" as="geometry" />
        </mxCell>
        <mxCell id="tpjrnW_lignRtLn6L6qm-471" value="" style="group" vertex="1" connectable="0" parent="tpjrnW_lignRtLn6L6qm-444">
          <mxGeometry x="191.18112274005694" y="49.99999999999994" width="25.71048120487263" height="134.78000000000006" as="geometry" />
        </mxCell>
        <mxCell id="tpjrnW_lignRtLn6L6qm-472" value="" style="rounded=1;whiteSpace=wrap;html=1;fontSize=14;strokeColor=default;fillColor=#FFCCCC;" vertex="1" parent="tpjrnW_lignRtLn6L6qm-471">
          <mxGeometry x="15.698476554964362" y="99.9999999999999" width="6.067881606004999" height="12.219999999999988" as="geometry" />
        </mxCell>
        <mxCell id="tpjrnW_lignRtLn6L6qm-473" value="Jun" style="text;html=1;strokeColor=none;fillColor=none;align=center;verticalAlign=middle;whiteSpace=wrap;rounded=0;fontSize=10;" vertex="1" parent="tpjrnW_lignRtLn6L6qm-471">
          <mxGeometry y="116.99999999999989" width="25.710481204872607" height="17.779999999999983" as="geometry" />
        </mxCell>
        <mxCell id="tpjrnW_lignRtLn6L6qm-474" value="" style="rounded=1;whiteSpace=wrap;html=1;fontSize=14;strokeColor=#9673a6;fillColor=#e1d5e7;" vertex="1" parent="tpjrnW_lignRtLn6L6qm-471">
          <mxGeometry x="0.7714878041920641" y="79.99999999999991" width="6.067881606004999" height="31.999999999999968" as="geometry" />
        </mxCell>
        <mxCell id="tpjrnW_lignRtLn6L6qm-475" value="" style="group" vertex="1" connectable="0" parent="tpjrnW_lignRtLn6L6qm-444">
          <mxGeometry x="224.71050281438167" y="49.99999999999994" width="25.71048120487263" height="134.78000000000006" as="geometry" />
        </mxCell>
        <mxCell id="tpjrnW_lignRtLn6L6qm-476" value="" style="rounded=1;whiteSpace=wrap;html=1;fontSize=14;strokeColor=default;fillColor=#FFCCCC;" vertex="1" parent="tpjrnW_lignRtLn6L6qm-475">
          <mxGeometry x="15.699206678997124" y="35.18518518518518" width="6.067881606004999" height="77.03703703703697" as="geometry" />
        </mxCell>
        <mxCell id="tpjrnW_lignRtLn6L6qm-477" value="Jul" style="text;html=1;strokeColor=none;fillColor=none;align=center;verticalAlign=middle;whiteSpace=wrap;rounded=0;fontSize=10;" vertex="1" parent="tpjrnW_lignRtLn6L6qm-475">
          <mxGeometry y="116.99999999999989" width="25.710481204872607" height="17.779999999999983" as="geometry" />
        </mxCell>
        <mxCell id="tpjrnW_lignRtLn6L6qm-478" value="" style="rounded=1;whiteSpace=wrap;html=1;fontSize=14;strokeColor=#9673a6;fillColor=#e1d5e7;" vertex="1" parent="tpjrnW_lignRtLn6L6qm-475">
          <mxGeometry x="0.7714878041921016" width="6.067881606004999" height="111.99999999999989" as="geometry" />
        </mxCell>
        <mxCell id="tpjrnW_lignRtLn6L6qm-479" value="" style="group" vertex="1" connectable="0" parent="tpjrnW_lignRtLn6L6qm-444">
          <mxGeometry x="259.9562265429765" y="74.99999999999991" width="25.710481204872604" height="104.77999999999989" as="geometry" />
        </mxCell>
        <mxCell id="tpjrnW_lignRtLn6L6qm-480" value="" style="rounded=1;whiteSpace=wrap;html=1;fontSize=14;strokeColor=default;fillColor=#FFCCCC;" vertex="1" parent="tpjrnW_lignRtLn6L6qm-479">
          <mxGeometry x="15.699206678997106" y="27.35349238539618" width="6.067881606004993" height="59.8897517490779" as="geometry" />
        </mxCell>
        <mxCell id="tpjrnW_lignRtLn6L6qm-481" value="Aug" style="text;html=1;strokeColor=none;fillColor=none;align=center;verticalAlign=middle;whiteSpace=wrap;rounded=0;fontSize=10;" vertex="1" parent="tpjrnW_lignRtLn6L6qm-479">
          <mxGeometry y="90.95756046891206" width="25.710481204872586" height="13.822439531087662" as="geometry" />
        </mxCell>
        <mxCell id="tpjrnW_lignRtLn6L6qm-482" value="" style="rounded=1;whiteSpace=wrap;html=1;fontSize=14;strokeColor=#9673a6;fillColor=#e1d5e7;" vertex="1" parent="tpjrnW_lignRtLn6L6qm-479">
          <mxGeometry x="0.7714878041921008" width="6.067881606004993" height="87.07048523519786" as="geometry" />
        </mxCell>
        <mxCell id="tpjrnW_lignRtLn6L6qm-483" value="" style="group" vertex="1" connectable="0" parent="tpjrnW_lignRtLn6L6qm-444">
          <mxGeometry x="297.2303564084358" y="49.99999999999994" width="25.71048120487263" height="134.78000000000006" as="geometry" />
        </mxCell>
        <mxCell id="tpjrnW_lignRtLn6L6qm-484" value="" style="rounded=1;whiteSpace=wrap;html=1;fontSize=14;strokeColor=default;fillColor=#FFCCCC;" vertex="1" parent="tpjrnW_lignRtLn6L6qm-483">
          <mxGeometry x="15.699206678997124" y="35.18518518518518" width="6.067881606004999" height="77.03703703703697" as="geometry" />
        </mxCell>
        <mxCell id="tpjrnW_lignRtLn6L6qm-485" value="Sep" style="text;html=1;strokeColor=none;fillColor=none;align=center;verticalAlign=middle;whiteSpace=wrap;rounded=0;fontSize=10;" vertex="1" parent="tpjrnW_lignRtLn6L6qm-483">
          <mxGeometry y="116.99999999999989" width="25.710481204872607" height="17.779999999999983" as="geometry" />
        </mxCell>
        <mxCell id="tpjrnW_lignRtLn6L6qm-486" value="" style="rounded=1;whiteSpace=wrap;html=1;fontSize=14;strokeColor=#9673a6;fillColor=#e1d5e7;" vertex="1" parent="tpjrnW_lignRtLn6L6qm-483">
          <mxGeometry x="0.7714878041921016" width="6.067881606004999" height="111.99999999999989" as="geometry" />
        </mxCell>
        <mxCell id="tpjrnW_lignRtLn6L6qm-487" value="" style="group" vertex="1" connectable="0" parent="tpjrnW_lignRtLn6L6qm-444">
          <mxGeometry x="332.47608013703046" y="65.99999999999993" width="25.710481204872604" height="114.77999999999987" as="geometry" />
        </mxCell>
        <mxCell id="tpjrnW_lignRtLn6L6qm-488" value="" style="rounded=1;whiteSpace=wrap;html=1;fontSize=14;strokeColor=default;fillColor=#FFCCCC;" vertex="1" parent="tpjrnW_lignRtLn6L6qm-487">
          <mxGeometry x="15.699206678997106" y="29.9640566519925" width="6.067881606004993" height="65.60551351173088" as="geometry" />
        </mxCell>
        <mxCell id="tpjrnW_lignRtLn6L6qm-489" value="Oct" style="text;html=1;strokeColor=none;fillColor=none;align=center;verticalAlign=middle;whiteSpace=wrap;rounded=0;fontSize=10;" vertex="1" parent="tpjrnW_lignRtLn6L6qm-487">
          <mxGeometry y="99.63837364594127" width="25.710481204872586" height="15.141626354058427" as="geometry" />
        </mxCell>
        <mxCell id="tpjrnW_lignRtLn6L6qm-490" value="" style="rounded=1;whiteSpace=wrap;html=1;fontSize=14;strokeColor=#9673a6;fillColor=#e1d5e7;" vertex="1" parent="tpjrnW_lignRtLn6L6qm-487">
          <mxGeometry x="0.7714878041921008" width="6.067881606004993" height="95.38032349013183" as="geometry" />
        </mxCell>
        <mxCell id="tpjrnW_lignRtLn6L6qm-491" value="" style="group" vertex="1" connectable="0" parent="tpjrnW_lignRtLn6L6qm-444">
          <mxGeometry x="366.00546021135517" y="49.99999999999994" width="25.71048120487263" height="134.78000000000006" as="geometry" />
        </mxCell>
        <mxCell id="tpjrnW_lignRtLn6L6qm-492" value="" style="rounded=1;whiteSpace=wrap;html=1;fontSize=14;strokeColor=default;fillColor=#FFCCCC;" vertex="1" parent="tpjrnW_lignRtLn6L6qm-491">
          <mxGeometry x="15.699206678997124" y="35.18518518518518" width="6.067881606004999" height="77.03703703703697" as="geometry" />
        </mxCell>
        <mxCell id="tpjrnW_lignRtLn6L6qm-493" value="Nov" style="text;html=1;strokeColor=none;fillColor=none;align=center;verticalAlign=middle;whiteSpace=wrap;rounded=0;fontSize=10;" vertex="1" parent="tpjrnW_lignRtLn6L6qm-491">
          <mxGeometry y="116.99999999999989" width="25.710481204872607" height="17.779999999999983" as="geometry" />
        </mxCell>
        <mxCell id="tpjrnW_lignRtLn6L6qm-494" value="" style="rounded=1;whiteSpace=wrap;html=1;fontSize=14;strokeColor=#9673a6;fillColor=#e1d5e7;" vertex="1" parent="tpjrnW_lignRtLn6L6qm-491">
          <mxGeometry x="0.7714878041921016" width="6.067881606004999" height="111.99999999999989" as="geometry" />
        </mxCell>
        <mxCell id="tpjrnW_lignRtLn6L6qm-495" value="" style="group" vertex="1" connectable="0" parent="tpjrnW_lignRtLn6L6qm-444">
          <mxGeometry x="401.25118393995007" y="49.99999999999994" width="25.71048120487263" height="134.78000000000006" as="geometry" />
        </mxCell>
        <mxCell id="tpjrnW_lignRtLn6L6qm-496" value="" style="rounded=1;whiteSpace=wrap;html=1;fontSize=14;strokeColor=default;fillColor=#FFCCCC;" vertex="1" parent="tpjrnW_lignRtLn6L6qm-495">
          <mxGeometry x="15.699206678997124" y="35.18518518518518" width="6.067881606004999" height="77.03703703703697" as="geometry" />
        </mxCell>
        <mxCell id="tpjrnW_lignRtLn6L6qm-497" value="Dec" style="text;html=1;strokeColor=none;fillColor=none;align=center;verticalAlign=middle;whiteSpace=wrap;rounded=0;fontSize=10;" vertex="1" parent="tpjrnW_lignRtLn6L6qm-495">
          <mxGeometry y="116.99999999999989" width="25.710481204872607" height="17.779999999999983" as="geometry" />
        </mxCell>
        <mxCell id="tpjrnW_lignRtLn6L6qm-498" value="" style="rounded=1;whiteSpace=wrap;html=1;fontSize=14;strokeColor=#9673a6;fillColor=#e1d5e7;" vertex="1" parent="tpjrnW_lignRtLn6L6qm-495">
          <mxGeometry x="0.7714878041920641" y="19.99999999999998" width="6.067881606004999" height="91.99999999999991" as="geometry" />
        </mxCell>
        <mxCell id="tpjrnW_lignRtLn6L6qm-499" value="" style="group" vertex="1" connectable="0" parent="tpjrnW_lignRtLn6L6qm-19">
          <mxGeometry x="649.5" y="450" width="370" height="208.3" as="geometry" />
        </mxCell>
        <mxCell id="tpjrnW_lignRtLn6L6qm-500" value="" style="rounded=0;whiteSpace=wrap;html=1;fontSize=14;strokeColor=default;fillColor=none;" vertex="1" parent="tpjrnW_lignRtLn6L6qm-499">
          <mxGeometry y="-30" width="370" height="238.3" as="geometry" />
        </mxCell>
        <mxCell id="tpjrnW_lignRtLn6L6qm-501" value="" style="endArrow=classic;html=1;rounded=0;fontSize=14;" edge="1" parent="tpjrnW_lignRtLn6L6qm-499">
          <mxGeometry x="9.610585492938442" y="35.353646239501714" width="112.29946524064171" height="47.77519762094827" as="geometry">
            <mxPoint x="9.610585492938442" y="171.2475416946434" as="sourcePoint" />
            <mxPoint x="358.83861236802414" y="171.03520748299476" as="targetPoint" />
          </mxGeometry>
        </mxCell>
        <mxCell id="tpjrnW_lignRtLn6L6qm-502" value="" style="endArrow=classic;html=1;rounded=0;fontSize=14;" edge="1" parent="tpjrnW_lignRtLn6L6qm-499">
          <mxGeometry x="9.610585492938442" y="35.353646239501714" width="112.29946524064171" height="47.77519762094827" as="geometry">
            <mxPoint x="9.610585492938442" y="171.2475416946434" as="sourcePoint" />
            <mxPoint x="10.603318250377072" y="16.243567191122413" as="targetPoint" />
          </mxGeometry>
        </mxCell>
        <mxCell id="tpjrnW_lignRtLn6L6qm-503" value="" style="rounded=1;whiteSpace=wrap;html=1;fontSize=14;strokeColor=#9673a6;fillColor=#e1d5e7;rotation=90;" vertex="1" parent="tpjrnW_lignRtLn6L6qm-499">
          <mxGeometry x="43.22736870972166" y="25.798606715312065" width="13.700534759358288" height="11.360941994261498" as="geometry" />
        </mxCell>
        <mxCell id="tpjrnW_lignRtLn6L6qm-504" value="Ordered" style="text;html=1;strokeColor=none;fillColor=none;align=center;verticalAlign=middle;whiteSpace=wrap;rounded=0;shadow=0;glass=0;fontSize=13;" vertex="1" parent="tpjrnW_lignRtLn6L6qm-499">
          <mxGeometry x="28.73245577951467" y="16.243567191122413" width="134.75935828877004" height="28.66511857256896" as="geometry" />
        </mxCell>
        <mxCell id="tpjrnW_lignRtLn6L6qm-505" value="" style="group" vertex="1" connectable="0" parent="tpjrnW_lignRtLn6L6qm-499">
          <mxGeometry x="31.073303167420786" y="64.01876481207067" width="33.10467571644045" height="128.78282270702834" as="geometry" />
        </mxCell>
        <mxCell id="tpjrnW_lignRtLn6L6qm-506" value="" style="rounded=1;whiteSpace=wrap;html=1;fontSize=14;strokeColor=default;fillColor=#FFCCCC;" vertex="1" parent="tpjrnW_lignRtLn6L6qm-505">
          <mxGeometry x="20.213273001508295" y="95.55039524189654" width="7.812971342383107" height="11.676258298559755" as="geometry" />
        </mxCell>
        <mxCell id="tpjrnW_lignRtLn6L6qm-507" value="2016" style="text;html=1;strokeColor=none;fillColor=none;align=center;verticalAlign=middle;whiteSpace=wrap;rounded=0;fontSize=10;" vertex="1" parent="tpjrnW_lignRtLn6L6qm-505">
          <mxGeometry y="111.79396243301895" width="33.10467571644042" height="16.98886027400921" as="geometry" />
        </mxCell>
        <mxCell id="tpjrnW_lignRtLn6L6qm-508" value="" style="rounded=1;whiteSpace=wrap;html=1;fontSize=14;strokeColor=#9673a6;fillColor=#e1d5e7;" vertex="1" parent="tpjrnW_lignRtLn6L6qm-505">
          <mxGeometry x="0.9933634992458521" y="66.88527666932758" width="7.812971342383107" height="40.13116600159654" as="geometry" />
        </mxCell>
        <mxCell id="tpjrnW_lignRtLn6L6qm-509" value="" style="group" vertex="1" connectable="0" parent="tpjrnW_lignRtLn6L6qm-499">
          <mxGeometry x="76.45550527903468" y="101.28341895641032" width="33.10467571644042" height="84.08434781286894" as="geometry" />
        </mxCell>
        <mxCell id="tpjrnW_lignRtLn6L6qm-510" value="" style="rounded=1;whiteSpace=wrap;html=1;fontSize=14;strokeColor=default;fillColor=#FFCCCC;" vertex="1" parent="tpjrnW_lignRtLn6L6qm-509">
          <mxGeometry x="20.213273001508295" y="47.77519762094826" width="7.812971342383107" height="22.23457697278932" as="geometry" />
        </mxCell>
        <mxCell id="tpjrnW_lignRtLn6L6qm-511" value="2017" style="text;html=1;strokeColor=none;fillColor=none;align=center;verticalAlign=middle;whiteSpace=wrap;rounded=0;fontSize=10;" vertex="1" parent="tpjrnW_lignRtLn6L6qm-509">
          <mxGeometry y="77.76957120968088" width="33.10467571644039" height="11.092296365282738" as="geometry" />
        </mxCell>
        <mxCell id="tpjrnW_lignRtLn6L6qm-512" value="" style="rounded=1;whiteSpace=wrap;html=1;fontSize=14;strokeColor=#9673a6;fillColor=#e1d5e7;" vertex="1" parent="tpjrnW_lignRtLn6L6qm-509">
          <mxGeometry x="0.9933634992458512" y="18.71591062758617" width="7.812971342383099" height="51.15682238206886" as="geometry" />
        </mxCell>
        <mxCell id="tpjrnW_lignRtLn6L6qm-513" value="" style="group" vertex="1" connectable="0" parent="tpjrnW_lignRtLn6L6qm-499">
          <mxGeometry x="119.62775263951728" y="103.19442686124826" width="31.251885369532427" height="82.17333990803102" as="geometry" />
        </mxCell>
        <mxCell id="tpjrnW_lignRtLn6L6qm-514" value="" style="rounded=1;whiteSpace=wrap;html=1;fontSize=14;strokeColor=default;fillColor=#FFCCCC;" vertex="1" parent="tpjrnW_lignRtLn6L6qm-513">
          <mxGeometry x="19.085972850678733" y="38.220158096758624" width="7.377677224736048" height="30.193924896439313" as="geometry" />
        </mxCell>
        <mxCell id="tpjrnW_lignRtLn6L6qm-515" value="2018" style="text;html=1;strokeColor=none;fillColor=none;align=center;verticalAlign=middle;whiteSpace=wrap;rounded=0;fontSize=10;" vertex="1" parent="tpjrnW_lignRtLn6L6qm-513">
          <mxGeometry y="77.06616490192758" width="31.251885369532392" height="10.840198720617233" as="geometry" />
        </mxCell>
        <mxCell id="tpjrnW_lignRtLn6L6qm-516" value="" style="rounded=1;whiteSpace=wrap;html=1;fontSize=14;strokeColor=#9673a6;fillColor=#e1d5e7;" vertex="1" parent="tpjrnW_lignRtLn6L6qm-513">
          <mxGeometry x="0.9377672953096826" width="7.375697828278044" height="68.28471635034484" as="geometry" />
        </mxCell>
        <mxCell id="tpjrnW_lignRtLn6L6qm-517" value="" style="group" vertex="1" connectable="0" parent="tpjrnW_lignRtLn6L6qm-499">
          <mxGeometry x="165.00995475113123" y="84.08434781286894" width="33.10467571644045" height="104.14993081366723" as="geometry" />
        </mxCell>
        <mxCell id="tpjrnW_lignRtLn6L6qm-518" value="" style="rounded=1;whiteSpace=wrap;html=1;fontSize=14;strokeColor=default;fillColor=#FFCCCC;" vertex="1" parent="tpjrnW_lignRtLn6L6qm-517">
          <mxGeometry x="20.213273001508295" y="61.81921995172402" width="7.812971342383107" height="24.897690835556865" as="geometry" />
        </mxCell>
        <mxCell id="tpjrnW_lignRtLn6L6qm-519" value="2019" style="text;html=1;strokeColor=none;fillColor=none;align=center;verticalAlign=middle;whiteSpace=wrap;rounded=0;fontSize=10;" vertex="1" parent="tpjrnW_lignRtLn6L6qm-517">
          <mxGeometry y="93.27712103665336" width="33.10467571644042" height="13.73932163427067" as="geometry" />
        </mxCell>
        <mxCell id="tpjrnW_lignRtLn6L6qm-520" value="" style="rounded=1;whiteSpace=wrap;html=1;fontSize=14;strokeColor=#9673a6;fillColor=#e1d5e7;" vertex="1" parent="tpjrnW_lignRtLn6L6qm-517">
          <mxGeometry x="0.9933634992458521" y="-7.727402493965503" width="7.812971342383107" height="94.27431042637919" as="geometry" />
        </mxCell>
        <mxCell id="tpjrnW_lignRtLn6L6qm-521" value="" style="group" vertex="1" connectable="0" parent="tpjrnW_lignRtLn6L6qm-499">
          <mxGeometry x="210.39215686274508" width="134.7633621280679" height="205.2231389005454" as="geometry" />
        </mxCell>
        <mxCell id="tpjrnW_lignRtLn6L6qm-522" value="" style="rounded=1;whiteSpace=wrap;html=1;fontSize=14;strokeColor=default;fillColor=#FFCCCC;" vertex="1" parent="tpjrnW_lignRtLn6L6qm-521">
          <mxGeometry x="20.213273001508274" y="121.81222074524118" width="7.812971342383099" height="49.05987190514589" as="geometry" />
        </mxCell>
        <mxCell id="tpjrnW_lignRtLn6L6qm-523" value="2020" style="text;html=1;strokeColor=none;fillColor=none;align=center;verticalAlign=middle;whiteSpace=wrap;rounded=0;fontSize=10;" vertex="1" parent="tpjrnW_lignRtLn6L6qm-521">
          <mxGeometry y="170.50634122056348" width="33.10467571644039" height="27.07276606062985" as="geometry" />
        </mxCell>
        <mxCell id="tpjrnW_lignRtLn6L6qm-524" value="" style="rounded=1;whiteSpace=wrap;html=1;fontSize=14;strokeColor=#9673a6;fillColor=#e1d5e7;" vertex="1" parent="tpjrnW_lignRtLn6L6qm-521">
          <mxGeometry x="0.9933634992458512" y="91.35916555893087" width="7.812971342383099" height="79.17794348440675" as="geometry" />
        </mxCell>
        <mxCell id="tpjrnW_lignRtLn6L6qm-525" value="Supplied" style="text;html=1;strokeColor=none;fillColor=none;align=center;verticalAlign=middle;whiteSpace=wrap;rounded=0;shadow=0;glass=0;fontSize=13;" vertex="1" parent="tpjrnW_lignRtLn6L6qm-521">
          <mxGeometry x="0.0040038392978709965" y="17.68637815927482" width="134.75935828877004" height="28.66511857256896" as="geometry" />
        </mxCell>
        <mxCell id="tpjrnW_lignRtLn6L6qm-526" value="" style="rounded=1;whiteSpace=wrap;html=1;fontSize=14;strokeColor=#b85450;fillColor=#f8cecc;rotation=90;" vertex="1" parent="tpjrnW_lignRtLn6L6qm-521">
          <mxGeometry x="19.405210475798757" y="26.314578849618268" width="13.700534759358288" height="11.418272231406636" as="geometry" />
        </mxCell>
        <mxCell id="tpjrnW_lignRtLn6L6qm-527" value="" style="group" vertex="1" connectable="0" parent="tpjrnW_lignRtLn6L6qm-499">
          <mxGeometry x="255.7743589743589" y="64.01876481207067" width="33.10467571644045" height="128.78282270702834" as="geometry" />
        </mxCell>
        <mxCell id="tpjrnW_lignRtLn6L6qm-528" value="" style="rounded=1;whiteSpace=wrap;html=1;fontSize=14;strokeColor=default;fillColor=#FFCCCC;" vertex="1" parent="tpjrnW_lignRtLn6L6qm-527">
          <mxGeometry x="20.213273001508295" y="38.22015809675862" width="7.812971342383107" height="69.00649544369766" as="geometry" />
        </mxCell>
        <mxCell id="tpjrnW_lignRtLn6L6qm-529" value="2021" style="text;html=1;strokeColor=none;fillColor=none;align=center;verticalAlign=middle;whiteSpace=wrap;rounded=0;fontSize=10;" vertex="1" parent="tpjrnW_lignRtLn6L6qm-527">
          <mxGeometry y="111.79396243301895" width="33.10467571644042" height="16.98886027400921" as="geometry" />
        </mxCell>
        <mxCell id="tpjrnW_lignRtLn6L6qm-530" value="" style="rounded=1;whiteSpace=wrap;html=1;fontSize=14;strokeColor=#9673a6;fillColor=#e1d5e7;" vertex="1" parent="tpjrnW_lignRtLn6L6qm-527">
          <mxGeometry x="0.9933634992458521" y="19.11007904837931" width="7.812971342383107" height="87.90636362254479" as="geometry" />
        </mxCell>
        <mxCell id="tpjrnW_lignRtLn6L6qm-531" value="" style="rounded=1;whiteSpace=wrap;html=1;fontSize=14;strokeColor=default;fillColor=#FFCCCC;" vertex="1" parent="tpjrnW_lignRtLn6L6qm-499">
          <mxGeometry x="318.4009049773755" y="83.12884386044999" width="7.812971342383107" height="88.11657449207698" as="geometry" />
        </mxCell>
        <mxCell id="tpjrnW_lignRtLn6L6qm-532" value="2022" style="text;html=1;strokeColor=none;fillColor=none;align=center;verticalAlign=middle;whiteSpace=wrap;rounded=0;fontSize=10;" vertex="1" parent="tpjrnW_lignRtLn6L6qm-499">
          <mxGeometry x="298.1876319758672" y="175.81272724508958" width="33.10467571644042" height="16.98886027400921" as="geometry" />
        </mxCell>
        <mxCell id="tpjrnW_lignRtLn6L6qm-533" value="" style="rounded=1;whiteSpace=wrap;html=1;fontSize=14;strokeColor=#9673a6;fillColor=#e1d5e7;" vertex="1" parent="tpjrnW_lignRtLn6L6qm-499">
          <mxGeometry x="299.18099547511304" y="54.46372528788102" width="7.812971342383107" height="116.57148219511376" as="geometry" />
        </mxCell>
        <mxCell id="tpjrnW_lignRtLn6L6qm-577" value="" style="group" vertex="1" connectable="0" parent="tpjrnW_lignRtLn6L6qm-499">
          <mxGeometry y="-20" width="210" height="19" as="geometry" />
        </mxCell>
        <mxCell id="tpjrnW_lignRtLn6L6qm-578" value="Product:" style="text;html=1;strokeColor=none;fillColor=none;align=center;verticalAlign=middle;whiteSpace=wrap;rounded=0;glass=1;fontSize=13;fontStyle=1" vertex="1" parent="tpjrnW_lignRtLn6L6qm-577">
          <mxGeometry width="70" height="19" as="geometry" />
        </mxCell>
        <mxCell id="tpjrnW_lignRtLn6L6qm-579" value="" style="rounded=0;whiteSpace=wrap;html=1;glass=1;fontSize=16;strokeColor=default;fillColor=default;" vertex="1" parent="tpjrnW_lignRtLn6L6qm-577">
          <mxGeometry x="70" width="129" height="19" as="geometry" />
        </mxCell>
        <mxCell id="tpjrnW_lignRtLn6L6qm-580" value="" style="triangle;whiteSpace=wrap;html=1;glass=1;fontSize=16;strokeColor=default;fillColor=default;rotation=90;" vertex="1" parent="tpjrnW_lignRtLn6L6qm-577">
          <mxGeometry x="184" y="5.541666666666657" width="7.5" height="7.916666666666666" as="geometry" />
        </mxCell>
        <mxCell id="tpjrnW_lignRtLn6L6qm-414" value="" style="rounded=0;whiteSpace=wrap;html=1;fontSize=14;strokeColor=default;fillColor=none;" vertex="1" parent="tpjrnW_lignRtLn6L6qm-19">
          <mxGeometry x="139.5" y="224" width="880.5" height="179.74" as="geometry" />
        </mxCell>
        <mxCell id="tpjrnW_lignRtLn6L6qm-415" value="" style="rounded=1;whiteSpace=wrap;html=1;fontSize=14;strokeColor=#82b366;fillColor=#d5e8d4;rotation=90;" vertex="1" parent="tpjrnW_lignRtLn6L6qm-19">
          <mxGeometry x="577.47" y="18.080000000000013" width="12.04" height="673.58" as="geometry" />
        </mxCell>
        <mxCell id="tpjrnW_lignRtLn6L6qm-417" value="" style="ellipse;whiteSpace=wrap;html=1;rounded=0;shadow=0;glass=0;fontSize=13;strokeColor=#9673a6;fillColor=#000099;" vertex="1" parent="tpjrnW_lignRtLn6L6qm-19">
          <mxGeometry x="896.16" y="345.87" width="17" height="17" as="geometry" />
        </mxCell>
        <mxCell id="tpjrnW_lignRtLn6L6qm-418" value="" style="group" vertex="1" connectable="0" parent="tpjrnW_lignRtLn6L6qm-19">
          <mxGeometry x="195.2317518248175" y="279" width="118.46715328467153" height="70.0000000000001" as="geometry" />
        </mxCell>
        <mxCell id="tpjrnW_lignRtLn6L6qm-419" value="12/2021" style="rounded=1;whiteSpace=wrap;html=1;arcSize=40;fontColor=#000000;fillColor=#ffffc0;strokeColor=#ff0000;shadow=0;glass=0;fontSize=13;" vertex="1" parent="tpjrnW_lignRtLn6L6qm-418">
          <mxGeometry x="15" width="90" height="30" as="geometry" />
        </mxCell>
        <mxCell id="tpjrnW_lignRtLn6L6qm-420" value="" style="edgeStyle=orthogonalEdgeStyle;html=1;verticalAlign=bottom;endArrow=open;endSize=8;strokeColor=#ff0000;rounded=0;fontSize=13;" edge="1" parent="tpjrnW_lignRtLn6L6qm-418" source="tpjrnW_lignRtLn6L6qm-419">
          <mxGeometry relative="1" as="geometry">
            <mxPoint x="60.0678523696926" y="70.0000000000001" as="targetPoint" />
          </mxGeometry>
        </mxCell>
        <mxCell id="tpjrnW_lignRtLn6L6qm-421" value="" style="group" vertex="1" connectable="0" parent="tpjrnW_lignRtLn6L6qm-19">
          <mxGeometry x="368.9835766423358" y="279" width="120.44160583941606" height="83" as="geometry" />
        </mxCell>
        <mxCell id="tpjrnW_lignRtLn6L6qm-422" value="01/2022" style="rounded=1;whiteSpace=wrap;html=1;arcSize=40;fontColor=#000000;fillColor=#ffffc0;strokeColor=#ff0000;shadow=0;glass=0;fontSize=13;" vertex="1" parent="tpjrnW_lignRtLn6L6qm-421">
          <mxGeometry x="11" width="100.44" height="30" as="geometry" />
        </mxCell>
        <mxCell id="tpjrnW_lignRtLn6L6qm-423" value="" style="edgeStyle=orthogonalEdgeStyle;html=1;verticalAlign=bottom;endArrow=open;endSize=8;strokeColor=#ff0000;rounded=0;fontSize=13;" edge="1" parent="tpjrnW_lignRtLn6L6qm-421" source="tpjrnW_lignRtLn6L6qm-422">
          <mxGeometry relative="1" as="geometry">
            <mxPoint x="61.068983242520815" y="70.0000000000001" as="targetPoint" />
          </mxGeometry>
        </mxCell>
        <mxCell id="tpjrnW_lignRtLn6L6qm-424" value="" style="ellipse;whiteSpace=wrap;html=1;rounded=0;shadow=0;glass=0;fontSize=13;strokeColor=#9673a6;fillColor=#000099;" vertex="1" parent="tpjrnW_lignRtLn6L6qm-421">
          <mxGeometry x="51.716423357664155" y="66" width="17" height="17" as="geometry" />
        </mxCell>
        <mxCell id="tpjrnW_lignRtLn6L6qm-425" value="" style="group" vertex="1" connectable="0" parent="tpjrnW_lignRtLn6L6qm-19">
          <mxGeometry x="535.5" y="280" width="123.63" height="70" as="geometry" />
        </mxCell>
        <mxCell id="tpjrnW_lignRtLn6L6qm-426" value="15/01/2022" style="rounded=1;whiteSpace=wrap;html=1;arcSize=40;fontColor=#000000;fillColor=#ffffc0;strokeColor=#ff0000;shadow=0;glass=0;fontSize=13;" vertex="1" parent="tpjrnW_lignRtLn6L6qm-425">
          <mxGeometry x="16" width="93.63" height="30" as="geometry" />
        </mxCell>
        <mxCell id="tpjrnW_lignRtLn6L6qm-427" value="" style="edgeStyle=orthogonalEdgeStyle;html=1;verticalAlign=bottom;endArrow=open;endSize=8;strokeColor=#ff0000;rounded=0;fontSize=13;" edge="1" parent="tpjrnW_lignRtLn6L6qm-425" source="tpjrnW_lignRtLn6L6qm-426">
          <mxGeometry relative="1" as="geometry">
            <mxPoint x="62.685633802816895" y="70" as="targetPoint" />
          </mxGeometry>
        </mxCell>
        <mxCell id="tpjrnW_lignRtLn6L6qm-428" value="" style="group" vertex="1" connectable="0" parent="tpjrnW_lignRtLn6L6qm-19">
          <mxGeometry x="700.6916058394161" y="281" width="118.47" height="68.00000000000009" as="geometry" />
        </mxCell>
        <mxCell id="tpjrnW_lignRtLn6L6qm-429" value="70 Mt" style="rounded=1;whiteSpace=wrap;html=1;arcSize=40;fontColor=#000000;fillColor=#ffffc0;strokeColor=#ff0000;shadow=0;glass=0;fontSize=13;" vertex="1" parent="tpjrnW_lignRtLn6L6qm-428">
          <mxGeometry x="20" width="78.47" height="29.14" as="geometry" />
        </mxCell>
        <mxCell id="tpjrnW_lignRtLn6L6qm-430" value="" style="edgeStyle=orthogonalEdgeStyle;html=1;verticalAlign=bottom;endArrow=open;endSize=8;strokeColor=#ff0000;rounded=0;fontSize=13;" edge="1" parent="tpjrnW_lignRtLn6L6qm-428" source="tpjrnW_lignRtLn6L6qm-429">
          <mxGeometry relative="1" as="geometry">
            <mxPoint x="60.0678523696926" y="68.00000000000009" as="targetPoint" />
          </mxGeometry>
        </mxCell>
        <mxCell id="tpjrnW_lignRtLn6L6qm-431" value="" style="group" vertex="1" connectable="0" parent="tpjrnW_lignRtLn6L6qm-19">
          <mxGeometry x="860.78" y="281" width="85.72" height="68" as="geometry" />
        </mxCell>
        <mxCell id="tpjrnW_lignRtLn6L6qm-432" value="Ghana" style="rounded=1;whiteSpace=wrap;html=1;arcSize=40;fontColor=#000000;fillColor=#ffffc0;strokeColor=#ff0000;shadow=0;glass=0;fontSize=13;" vertex="1" parent="tpjrnW_lignRtLn6L6qm-431">
          <mxGeometry width="85.72" height="29.142857142857146" as="geometry" />
        </mxCell>
        <mxCell id="tpjrnW_lignRtLn6L6qm-433" value="" style="edgeStyle=orthogonalEdgeStyle;html=1;verticalAlign=bottom;endArrow=open;endSize=8;strokeColor=#ff0000;rounded=0;fontSize=13;" edge="1" parent="tpjrnW_lignRtLn6L6qm-431" source="tpjrnW_lignRtLn6L6qm-432">
          <mxGeometry relative="1" as="geometry">
            <mxPoint x="43.46366197183098" y="68" as="targetPoint" />
          </mxGeometry>
        </mxCell>
        <mxCell id="tpjrnW_lignRtLn6L6qm-434" value="Order date" style="text;html=1;strokeColor=none;fillColor=none;align=center;verticalAlign=middle;whiteSpace=wrap;rounded=0;shadow=0;glass=0;fontSize=10;" vertex="1" parent="tpjrnW_lignRtLn6L6qm-19">
          <mxGeometry x="186.1768248175182" y="366.3300000000007" width="136.59262773722628" height="30.00000000000004" as="geometry" />
        </mxCell>
        <mxCell id="tpjrnW_lignRtLn6L6qm-435" value="Required date" style="text;html=1;strokeColor=none;fillColor=none;align=center;verticalAlign=middle;whiteSpace=wrap;rounded=0;shadow=0;glass=0;fontSize=10;" vertex="1" parent="tpjrnW_lignRtLn6L6qm-19">
          <mxGeometry x="360.90999999999997" y="366.22" width="136.59" height="30.11" as="geometry" />
        </mxCell>
        <mxCell id="tpjrnW_lignRtLn6L6qm-436" value="Supplied date" style="text;html=1;strokeColor=none;fillColor=none;align=center;verticalAlign=middle;whiteSpace=wrap;rounded=0;shadow=0;glass=0;fontSize=10;" vertex="1" parent="tpjrnW_lignRtLn6L6qm-19">
          <mxGeometry x="527.9432846715328" y="366.2200000000007" width="136.59262773722628" height="30.00000000000004" as="geometry" />
        </mxCell>
        <mxCell id="tpjrnW_lignRtLn6L6qm-437" value="Quantity" style="text;html=1;strokeColor=none;fillColor=none;align=center;verticalAlign=middle;whiteSpace=wrap;rounded=0;shadow=0;glass=0;fontSize=10;" vertex="1" parent="tpjrnW_lignRtLn6L6qm-19">
          <mxGeometry x="691.633795620438" y="366.2200000000007" width="136.59262773722628" height="30.00000000000004" as="geometry" />
        </mxCell>
        <mxCell id="tpjrnW_lignRtLn6L6qm-438" value="Origin" style="text;html=1;strokeColor=none;fillColor=none;align=center;verticalAlign=middle;whiteSpace=wrap;rounded=0;shadow=0;glass=0;fontSize=10;" vertex="1" parent="tpjrnW_lignRtLn6L6qm-19">
          <mxGeometry x="878.75" y="363.37" width="51.81" height="30" as="geometry" />
        </mxCell>
        <mxCell id="tpjrnW_lignRtLn6L6qm-439" value="" style="ellipse;whiteSpace=wrap;html=1;rounded=0;shadow=0;glass=0;fontSize=13;strokeColor=#9673a6;fillColor=#000099;" vertex="1" parent="tpjrnW_lignRtLn6L6qm-19">
          <mxGeometry x="751.43" y="346.3699999999999" width="17" height="17" as="geometry" />
        </mxCell>
        <mxCell id="tpjrnW_lignRtLn6L6qm-440" value="" style="ellipse;whiteSpace=wrap;html=1;rounded=0;shadow=0;glass=0;fontSize=13;strokeColor=#9673a6;fillColor=#000099;" vertex="1" parent="tpjrnW_lignRtLn6L6qm-19">
          <mxGeometry x="590.3299999999999" y="346.3699999999999" width="17" height="17" as="geometry" />
        </mxCell>
        <mxCell id="tpjrnW_lignRtLn6L6qm-441" value="" style="ellipse;whiteSpace=wrap;html=1;rounded=0;shadow=0;glass=0;fontSize=13;strokeColor=#9673a6;fillColor=#000099;" vertex="1" parent="tpjrnW_lignRtLn6L6qm-19">
          <mxGeometry x="245.9699999999999" y="346.3699999999999" width="17" height="17" as="geometry" />
        </mxCell>
        <mxCell id="tpjrnW_lignRtLn6L6qm-544" value="" style="group" vertex="1" connectable="0" parent="tpjrnW_lignRtLn6L6qm-19">
          <mxGeometry x="143" y="231" width="210" height="19" as="geometry" />
        </mxCell>
        <mxCell id="tpjrnW_lignRtLn6L6qm-540" value="Order ID:" style="text;html=1;strokeColor=none;fillColor=none;align=center;verticalAlign=middle;whiteSpace=wrap;rounded=0;glass=1;fontSize=13;fontStyle=1" vertex="1" parent="tpjrnW_lignRtLn6L6qm-544">
          <mxGeometry width="70" height="19" as="geometry" />
        </mxCell>
        <mxCell id="tpjrnW_lignRtLn6L6qm-541" value="" style="rounded=0;whiteSpace=wrap;html=1;glass=1;fontSize=16;strokeColor=default;fillColor=default;" vertex="1" parent="tpjrnW_lignRtLn6L6qm-544">
          <mxGeometry x="70" width="129" height="19" as="geometry" />
        </mxCell>
        <mxCell id="tpjrnW_lignRtLn6L6qm-542" value="" style="triangle;whiteSpace=wrap;html=1;glass=1;fontSize=16;strokeColor=default;fillColor=default;rotation=90;" vertex="1" parent="tpjrnW_lignRtLn6L6qm-544">
          <mxGeometry x="184" y="5.541666666666657" width="7.5" height="7.916666666666666" as="geometry" />
        </mxCell>
        <mxCell id="tpjrnW_lignRtLn6L6qm-572" value="" style="group" vertex="1" connectable="0" parent="tpjrnW_lignRtLn6L6qm-19">
          <mxGeometry x="149.07" y="430" width="210" height="19" as="geometry" />
        </mxCell>
        <mxCell id="tpjrnW_lignRtLn6L6qm-573" value="Product:" style="text;html=1;strokeColor=none;fillColor=none;align=center;verticalAlign=middle;whiteSpace=wrap;rounded=0;glass=1;fontSize=13;fontStyle=1" vertex="1" parent="tpjrnW_lignRtLn6L6qm-572">
          <mxGeometry width="70" height="19" as="geometry" />
        </mxCell>
        <mxCell id="tpjrnW_lignRtLn6L6qm-574" value="" style="rounded=0;whiteSpace=wrap;html=1;glass=1;fontSize=16;strokeColor=default;fillColor=default;" vertex="1" parent="tpjrnW_lignRtLn6L6qm-572">
          <mxGeometry x="70" width="129" height="19" as="geometry" />
        </mxCell>
        <mxCell id="tpjrnW_lignRtLn6L6qm-575" value="" style="triangle;whiteSpace=wrap;html=1;glass=1;fontSize=16;strokeColor=default;fillColor=default;rotation=90;" vertex="1" parent="tpjrnW_lignRtLn6L6qm-572">
          <mxGeometry x="184" y="5.541666666666657" width="7.5" height="7.916666666666666" as="geometry" />
        </mxCell>
        <mxCell id="tpjrnW_lignRtLn6L6qm-20" value="" style="group" vertex="1" connectable="0" parent="1">
          <mxGeometry x="80" y="-720" width="1040" height="680" as="geometry" />
        </mxCell>
        <mxCell id="tpjrnW_lignRtLn6L6qm-21" value="" style="rounded=0;whiteSpace=wrap;html=1;" vertex="1" parent="tpjrnW_lignRtLn6L6qm-20">
          <mxGeometry width="1040" height="680" as="geometry" />
        </mxCell>
        <mxCell id="tpjrnW_lignRtLn6L6qm-22" value="" style="rounded=0;whiteSpace=wrap;html=1;" vertex="1" parent="tpjrnW_lignRtLn6L6qm-20">
          <mxGeometry width="110" height="680" as="geometry" />
        </mxCell>
        <mxCell id="tpjrnW_lignRtLn6L6qm-23" value="" style="group" vertex="1" connectable="0" parent="tpjrnW_lignRtLn6L6qm-20">
          <mxGeometry x="35" y="12" width="40" height="40" as="geometry" />
        </mxCell>
        <mxCell id="tpjrnW_lignRtLn6L6qm-24" value="" style="ellipse;whiteSpace=wrap;html=1;" vertex="1" parent="tpjrnW_lignRtLn6L6qm-23">
          <mxGeometry width="40" height="40" as="geometry" />
        </mxCell>
        <mxCell id="tpjrnW_lignRtLn6L6qm-25" value="" style="group" vertex="1" connectable="0" parent="tpjrnW_lignRtLn6L6qm-23">
          <mxGeometry x="10" y="4.5" width="20" height="29" as="geometry" />
        </mxCell>
        <mxCell id="tpjrnW_lignRtLn6L6qm-26" value="" style="ellipse;whiteSpace=wrap;html=1;aspect=fixed;" vertex="1" parent="tpjrnW_lignRtLn6L6qm-25">
          <mxGeometry x="4.333333333333334" y="2" width="10.74074074074074" height="10.74074074074074" as="geometry" />
        </mxCell>
        <mxCell id="tpjrnW_lignRtLn6L6qm-27" value="" style="shape=or;whiteSpace=wrap;html=1;rotation=-90;" vertex="1" parent="tpjrnW_lignRtLn6L6qm-25">
          <mxGeometry x="2.0833333333333335" y="11.680555555555555" width="15.833333333333336" height="19.333333333333332" as="geometry" />
        </mxCell>
        <mxCell id="tpjrnW_lignRtLn6L6qm-28" value="Orders" style="text;strokeColor=none;fillColor=none;html=1;fontSize=16;fontStyle=1;verticalAlign=middle;align=center;glass=0;fontColor=#333333;" vertex="1" parent="tpjrnW_lignRtLn6L6qm-20">
          <mxGeometry x="14.5" y="90" width="64.5" height="40" as="geometry" />
        </mxCell>
        <mxCell id="tpjrnW_lignRtLn6L6qm-29" value="New order" style="text;strokeColor=none;fillColor=none;html=1;fontSize=16;fontStyle=1;verticalAlign=middle;align=center;fontColor=#333333;glass=0;" vertex="1" parent="tpjrnW_lignRtLn6L6qm-20">
          <mxGeometry x="14.5" y="160" width="80.5" height="40" as="geometry" />
        </mxCell>
        <mxCell id="tpjrnW_lignRtLn6L6qm-620" value="" style="group" vertex="1" connectable="0" parent="tpjrnW_lignRtLn6L6qm-20">
          <mxGeometry x="300" y="40" width="510" height="358" as="geometry" />
        </mxCell>
        <mxCell id="tpjrnW_lignRtLn6L6qm-581" value="User profile" style="text;strokeColor=none;fillColor=none;html=1;fontSize=24;fontStyle=1;verticalAlign=middle;align=center;rounded=0;shadow=0;glass=0;sketch=0;fontColor=#000099;opacity=20;" vertex="1" parent="tpjrnW_lignRtLn6L6qm-620">
          <mxGeometry x="260" width="100" height="40" as="geometry" />
        </mxCell>
        <mxCell id="tpjrnW_lignRtLn6L6qm-582" value="Company name:&amp;nbsp;" style="text;strokeColor=none;fillColor=none;html=1;fontSize=15;fontStyle=1;verticalAlign=middle;align=center;rounded=0;shadow=0;glass=0;sketch=0;fontColor=#000099;opacity=20;" vertex="1" parent="tpjrnW_lignRtLn6L6qm-620">
          <mxGeometry x="10" y="108" width="130" height="30" as="geometry" />
        </mxCell>
        <mxCell id="tpjrnW_lignRtLn6L6qm-611" value="Address:" style="text;strokeColor=none;fillColor=none;html=1;fontSize=15;fontStyle=1;verticalAlign=middle;align=center;rounded=0;shadow=0;glass=0;sketch=0;fontColor=#000099;opacity=20;" vertex="1" parent="tpjrnW_lignRtLn6L6qm-620">
          <mxGeometry x="10" y="148" width="70" height="30" as="geometry" />
        </mxCell>
        <mxCell id="tpjrnW_lignRtLn6L6qm-612" value="Country:" style="text;strokeColor=none;fillColor=none;html=1;fontSize=15;fontStyle=1;verticalAlign=middle;align=center;rounded=0;shadow=0;glass=0;sketch=0;fontColor=#000099;opacity=20;" vertex="1" parent="tpjrnW_lignRtLn6L6qm-620">
          <mxGeometry x="10" y="198" width="70" height="30" as="geometry" />
        </mxCell>
        <mxCell id="tpjrnW_lignRtLn6L6qm-613" value="Email:" style="text;strokeColor=none;fillColor=none;html=1;fontSize=15;fontStyle=1;verticalAlign=middle;align=center;rounded=0;shadow=0;glass=0;sketch=0;fontColor=#000099;opacity=20;" vertex="1" parent="tpjrnW_lignRtLn6L6qm-620">
          <mxGeometry x="10" y="248" width="50" height="30" as="geometry" />
        </mxCell>
        <mxCell id="tpjrnW_lignRtLn6L6qm-614" value="Tel:" style="text;strokeColor=none;fillColor=none;html=1;fontSize=15;fontStyle=1;verticalAlign=middle;align=center;rounded=0;shadow=0;glass=0;sketch=0;fontColor=#000099;opacity=20;" vertex="1" parent="tpjrnW_lignRtLn6L6qm-620">
          <mxGeometry x="10" y="295" width="40" height="30" as="geometry" />
        </mxCell>
        <mxCell id="tpjrnW_lignRtLn6L6qm-617" value="" style="rounded=0;whiteSpace=wrap;html=1;shadow=0;glass=0;sketch=0;fontSize=15;fontColor=#000099;strokeColor=#000000;strokeWidth=1;fillColor=none;opacity=20;" vertex="1" parent="tpjrnW_lignRtLn6L6qm-620">
          <mxGeometry y="93" width="150" height="265" as="geometry" />
        </mxCell>
        <mxCell id="tpjrnW_lignRtLn6L6qm-616" value="" style="rounded=0;whiteSpace=wrap;html=1;shadow=0;glass=0;sketch=0;fontSize=15;fontColor=#000099;strokeColor=#000000;strokeWidth=1;fillColor=none;opacity=20;" vertex="1" parent="tpjrnW_lignRtLn6L6qm-620">
          <mxGeometry y="58" width="510" height="300" as="geometry" />
        </mxCell>
        <mxCell id="tpjrnW_lignRtLn6L6qm-618" value="" style="rounded=0;whiteSpace=wrap;html=1;shadow=0;glass=0;sketch=0;fontSize=15;fontColor=#000099;strokeColor=#000000;strokeWidth=1;fillColor=none;opacity=20;" vertex="1" parent="tpjrnW_lignRtLn6L6qm-620">
          <mxGeometry y="58" width="510" height="35" as="geometry" />
        </mxCell>
        <mxCell id="tpjrnW_lignRtLn6L6qm-619" value="Logout" style="text;strokeColor=none;fillColor=none;html=1;fontSize=18;fontStyle=1;verticalAlign=middle;align=center;rounded=0;shadow=0;glass=0;sketch=0;fontColor=#000099;opacity=20;" vertex="1" parent="tpjrnW_lignRtLn6L6qm-620">
          <mxGeometry x="420" y="55.5" width="90" height="40" as="geometry" />
        </mxCell>
        <mxCell id="tpjrnW_lignRtLn6L6qm-194" value="New Order" style="text;strokeColor=none;fillColor=none;html=1;fontSize=20;fontStyle=1;verticalAlign=middle;align=center;glass=1;" vertex="1" parent="1">
          <mxGeometry x="580" y="902" width="135" height="30" as="geometry" />
        </mxCell>
        <mxCell id="tpjrnW_lignRtLn6L6qm-198" value="Conditional" style="whiteSpace=wrap;html=1;rounded=1;arcSize=50;align=center;verticalAlign=middle;strokeWidth=1;autosize=1;spacing=4;treeFolding=1;treeMoving=1;newEdgeStyle={&quot;edgeStyle&quot;:&quot;entityRelationEdgeStyle&quot;,&quot;startArrow&quot;:&quot;none&quot;,&quot;endArrow&quot;:&quot;none&quot;,&quot;segment&quot;:10,&quot;curved&quot;:1};shadow=0;glass=0;dashed=1;sketch=0;fontSize=12;fontColor=#000099;fillColor=#FFFFCC;opacity=20;" vertex="1" parent="1">
          <mxGeometry x="1039" y="1168" width="100" height="30" as="geometry" />
        </mxCell>
        <mxCell id="tpjrnW_lignRtLn6L6qm-199" value="" style="edgeStyle=entityRelationEdgeStyle;startArrow=none;endArrow=none;segment=10;curved=1;rounded=0;fontSize=12;fontColor=#000099;" edge="1" target="tpjrnW_lignRtLn6L6qm-198" parent="1">
          <mxGeometry relative="1" as="geometry">
            <mxPoint x="976" y="1210" as="sourcePoint" />
          </mxGeometry>
        </mxCell>
        <mxCell id="tpjrnW_lignRtLn6L6qm-547" value="" style="rounded=0;whiteSpace=wrap;html=1;fontSize=14;strokeColor=default;fillColor=none;" vertex="1" parent="1">
          <mxGeometry x="930" y="92.26" width="170" height="179.74" as="geometry" />
        </mxCell>
        <mxCell id="tpjrnW_lignRtLn6L6qm-548" value="" style="group" vertex="1" connectable="0" parent="1">
          <mxGeometry x="930" y="94" width="207" height="190" as="geometry" />
        </mxCell>
        <mxCell id="tpjrnW_lignRtLn6L6qm-549" value="" style="ellipse;whiteSpace=wrap;html=1;aspect=fixed;rounded=0;shadow=0;glass=1;fontSize=10;strokeColor=default;fillColor=none;" vertex="1" parent="tpjrnW_lignRtLn6L6qm-548">
          <mxGeometry x="11.5" y="12.837837837837837" width="143.86499999999998" height="143.86499999999998" as="geometry" />
        </mxCell>
        <mxCell id="tpjrnW_lignRtLn6L6qm-550" value="" style="endArrow=none;html=1;rounded=0;fontSize=10;exitX=0.5;exitY=0;exitDx=0;exitDy=0;startSize=4;endSize=5;entryX=0.5;entryY=1;entryDx=0;entryDy=0;" edge="1" parent="tpjrnW_lignRtLn6L6qm-548" source="tpjrnW_lignRtLn6L6qm-549" target="tpjrnW_lignRtLn6L6qm-549">
          <mxGeometry width="50" height="50" relative="1" as="geometry">
            <mxPoint x="162.18852500000003" y="27.714837837837603" as="sourcePoint" />
            <mxPoint x="109.25" y="101.67567567567568" as="targetPoint" />
          </mxGeometry>
        </mxCell>
        <mxCell id="tpjrnW_lignRtLn6L6qm-551" value="" style="endArrow=none;html=1;rounded=0;fontSize=10;exitX=0.937;exitY=0.249;exitDx=0;exitDy=0;exitPerimeter=0;" edge="1" parent="tpjrnW_lignRtLn6L6qm-548" source="tpjrnW_lignRtLn6L6qm-549">
          <mxGeometry width="50" height="50" relative="1" as="geometry">
            <mxPoint x="174.8" y="158.79546762928803" as="sourcePoint" />
            <mxPoint x="83.375" y="98.41726618705036" as="targetPoint" />
          </mxGeometry>
        </mxCell>
        <mxCell id="tpjrnW_lignRtLn6L6qm-552" value="" style="endArrow=none;html=1;rounded=0;fontSize=10;entryX=-0.003;entryY=0.544;entryDx=0;entryDy=0;entryPerimeter=0;" edge="1" parent="tpjrnW_lignRtLn6L6qm-548" target="tpjrnW_lignRtLn6L6qm-549">
          <mxGeometry width="50" height="50" relative="1" as="geometry">
            <mxPoint x="83.375" y="98.41726618705036" as="sourcePoint" />
            <mxPoint x="109.25" y="101.67567567567568" as="targetPoint" />
          </mxGeometry>
        </mxCell>
        <mxCell id="tpjrnW_lignRtLn6L6qm-553" value="0 Mt" style="text;html=1;strokeColor=none;fillColor=none;align=center;verticalAlign=middle;whiteSpace=wrap;rounded=0;shadow=0;glass=1;fontSize=10;" vertex="1" parent="tpjrnW_lignRtLn6L6qm-548">
          <mxGeometry x="81.66" y="126" width="52.03" height="15.41" as="geometry" />
        </mxCell>
        <mxCell id="tpjrnW_lignRtLn6L6qm-554" value="3 274 Mt" style="text;html=1;strokeColor=none;fillColor=none;align=center;verticalAlign=middle;whiteSpace=wrap;rounded=0;shadow=0;glass=1;fontSize=10;" vertex="1" parent="tpjrnW_lignRtLn6L6qm-548">
          <mxGeometry x="85" y="49.48" width="45.35" height="15.41" as="geometry" />
        </mxCell>
        <mxCell id="tpjrnW_lignRtLn6L6qm-555" value="6 936 Mt" style="text;html=1;strokeColor=none;fillColor=none;align=center;verticalAlign=middle;whiteSpace=wrap;rounded=0;shadow=0;glass=1;fontSize=10;" vertex="1" parent="tpjrnW_lignRtLn6L6qm-548">
          <mxGeometry x="36" y="121.35" width="40.5" height="15.41" as="geometry" />
        </mxCell>
        <mxCell id="tpjrnW_lignRtLn6L6qm-556" value="9 034 Mt" style="text;html=1;strokeColor=none;fillColor=none;align=center;verticalAlign=middle;whiteSpace=wrap;rounded=0;shadow=0;glass=1;fontSize=10;" vertex="1" parent="tpjrnW_lignRtLn6L6qm-548">
          <mxGeometry x="30" y="54.43" width="44.75" height="15.41" as="geometry" />
        </mxCell>
        <mxCell id="tpjrnW_lignRtLn6L6qm-563" value="Total orders" style="text;html=1;strokeColor=none;fillColor=none;align=center;verticalAlign=middle;whiteSpace=wrap;rounded=0;shadow=0;glass=0;sketch=0;fontSize=9;fontColor=#000099;opacity=20;" vertex="1" parent="tpjrnW_lignRtLn6L6qm-548">
          <mxGeometry x="24" y="28.43" width="66.25" height="30" as="geometry" />
        </mxCell>
        <mxCell id="tpjrnW_lignRtLn6L6qm-564" value="Supplied" style="text;html=1;strokeColor=none;fillColor=none;align=center;verticalAlign=middle;whiteSpace=wrap;rounded=0;shadow=0;glass=0;sketch=0;fontSize=9;fontColor=#000099;opacity=20;" vertex="1" parent="tpjrnW_lignRtLn6L6qm-548">
          <mxGeometry x="83.78" y="31.89" width="44.22" height="11.11" as="geometry" />
        </mxCell>
        <mxCell id="tpjrnW_lignRtLn6L6qm-565" value="In progress" style="text;html=1;strokeColor=none;fillColor=none;align=center;verticalAlign=middle;whiteSpace=wrap;rounded=0;shadow=0;glass=0;sketch=0;fontSize=9;fontColor=#000099;opacity=20;" vertex="1" parent="tpjrnW_lignRtLn6L6qm-548">
          <mxGeometry x="96" y="90" width="54" height="14" as="geometry" />
        </mxCell>
        <mxCell id="tpjrnW_lignRtLn6L6qm-566" value="Pending" style="text;html=1;strokeColor=none;fillColor=none;align=center;verticalAlign=middle;whiteSpace=wrap;rounded=0;shadow=0;glass=0;sketch=0;fontSize=9;fontColor=#000099;opacity=20;" vertex="1" parent="tpjrnW_lignRtLn6L6qm-548">
          <mxGeometry x="11.5" y="96.76" width="66.25" height="13.24" as="geometry" />
        </mxCell>
        <mxCell id="tpjrnW_lignRtLn6L6qm-569" value="Canceled" style="text;html=1;strokeColor=none;fillColor=none;align=center;verticalAlign=middle;whiteSpace=wrap;rounded=0;shadow=0;glass=0;sketch=0;fontSize=9;fontColor=#000099;opacity=20;" vertex="1" parent="tpjrnW_lignRtLn6L6qm-548">
          <mxGeometry x="74.75" y="110" width="62.25" height="10" as="geometry" />
        </mxCell>
        <mxCell id="tpjrnW_lignRtLn6L6qm-570" value="6 936 Mt" style="text;html=1;strokeColor=none;fillColor=none;align=center;verticalAlign=middle;whiteSpace=wrap;rounded=0;shadow=0;glass=1;fontSize=10;" vertex="1" parent="tpjrnW_lignRtLn6L6qm-548">
          <mxGeometry x="114.86" y="69.84" width="40.5" height="15.41" as="geometry" />
        </mxCell>
        <mxCell id="tpjrnW_lignRtLn6L6qm-568" value="" style="endArrow=none;html=1;rounded=0;fontSize=10;entryX=-0.003;entryY=0.544;entryDx=0;entryDy=0;entryPerimeter=0;exitX=0.963;exitY=0.731;exitDx=0;exitDy=0;exitPerimeter=0;" edge="1" parent="1" source="tpjrnW_lignRtLn6L6qm-549">
          <mxGeometry width="50" height="50" relative="1" as="geometry">
            <mxPoint x="1084.375" y="199.41726618705025" as="sourcePoint" />
            <mxPoint x="1012.068405" y="192.10039783783782" as="targetPoint" />
          </mxGeometry>
        </mxCell>
      </root>
    </mxGraphModel>
  </diagram>
</mxfile>
